<svg xmlns="http://www.w3.org/2000/svg" xmlns:xlink="http://www.w3.org/1999/xlink" width="940" zoomAndPan="magnify" viewBox="0 0 705 591.000005" height="788" preserveAspectRatio="xMidYMid meet" version="1.0"><defs><g/><clipPath id="id1"><path d="M 62.640625 0 L 645.152344 0 L 645.152344 590 L 62.640625 590 Z M 62.640625 0 " clip-rule="nonzero"/></clipPath><clipPath id="id2"><path d="M 152.914062 91.066406 L 554.984375 91.066406 L 554.984375 493.136719 L 152.914062 493.136719 Z M 152.914062 91.066406 " clip-rule="nonzero"/></clipPath><clipPath id="id3"><path d="M 269 174.171875 L 437 174.171875 L 437 410.023438 L 269 410.023438 Z M 269 174.171875 " clip-rule="nonzero"/></clipPath><clipPath id="id4"><path d="M 447 215 L 485.351562 215 L 485.351562 254 L 447 254 Z M 447 215 " clip-rule="nonzero"/></clipPath><clipPath id="id5"><path d="M 222.546875 266 L 261 266 L 261 305 L 222.546875 305 Z M 222.546875 266 " clip-rule="nonzero"/></clipPath></defs><g clip-path="url(#id1)"><path fill="#385682" d="M 62.640625 0 L 645.152344 0 L 645.152344 643.160156 L 62.640625 643.160156 L 62.640625 0 " fill-opacity="1" fill-rule="nonzero"/></g><g clip-path="url(#id2)"><path fill="#666565" d="M 353.949219 91.066406 C 242.921875 91.066406 152.914062 181.074219 152.914062 292.101562 C 152.914062 403.128906 242.921875 493.136719 353.949219 493.136719 C 464.976562 493.136719 554.984375 403.128906 554.984375 292.101562 C 554.984375 181.074219 464.976562 91.066406 353.949219 91.066406 " fill-opacity="1" fill-rule="nonzero"/></g><g clip-path="url(#id3)"><path fill="#000000" d="M 416.632812 410.121094 L 289.011719 410.121094 C 288.363281 410.121094 287.714844 410.089844 287.070312 410.023438 C 286.421875 409.960938 285.78125 409.863281 285.144531 409.738281 C 284.507812 409.609375 283.875 409.453125 283.253906 409.261719 C 282.632812 409.074219 282.023438 408.855469 281.421875 408.605469 C 280.820312 408.355469 280.234375 408.078125 279.664062 407.773438 C 279.089844 407.464844 278.53125 407.132812 277.992188 406.769531 C 277.453125 406.410156 276.929688 406.023438 276.429688 405.609375 C 275.925781 405.199219 275.445312 404.761719 274.988281 404.304688 C 274.527344 403.84375 274.089844 403.363281 273.679688 402.859375 C 273.265625 402.359375 272.878906 401.835938 272.519531 401.296875 C 272.15625 400.757812 271.824219 400.199219 271.519531 399.628906 C 271.210938 399.054688 270.933594 398.46875 270.683594 397.867188 C 270.4375 397.269531 270.214844 396.65625 270.027344 396.035156 C 269.839844 395.414062 269.679688 394.785156 269.554688 394.148438 C 269.425781 393.511719 269.332031 392.867188 269.265625 392.222656 C 269.203125 391.574219 269.167969 390.925781 269.167969 390.277344 L 269.167969 194.183594 C 269.167969 193.535156 269.203125 192.886719 269.265625 192.238281 C 269.332031 191.59375 269.425781 190.949219 269.554688 190.3125 C 269.679688 189.675781 269.839844 189.046875 270.027344 188.425781 C 270.214844 187.804688 270.4375 187.191406 270.683594 186.59375 C 270.933594 185.992188 271.210938 185.40625 271.519531 184.832031 C 271.824219 184.261719 272.15625 183.703125 272.519531 183.164062 C 272.878906 182.625 273.265625 182.101562 273.679688 181.601562 C 274.089844 181.097656 274.527344 180.617188 274.988281 180.15625 C 275.445312 179.699219 275.925781 179.261719 276.429688 178.851562 C 276.929688 178.4375 277.453125 178.050781 277.992188 177.691406 C 278.53125 177.328125 279.089844 176.996094 279.664062 176.6875 C 280.234375 176.382812 280.820312 176.105469 281.421875 175.855469 C 282.023438 175.605469 282.632812 175.386719 283.253906 175.199219 C 283.875 175.007812 284.507812 174.851562 285.144531 174.722656 C 285.78125 174.597656 286.421875 174.5 287.070312 174.4375 C 287.714844 174.375 288.363281 174.339844 289.011719 174.339844 L 416.632812 174.339844 C 417.28125 174.339844 417.929688 174.375 418.578125 174.4375 C 419.222656 174.5 419.867188 174.597656 420.503906 174.722656 C 421.140625 174.851562 421.769531 175.007812 422.390625 175.199219 C 423.011719 175.386719 423.625 175.605469 424.222656 175.855469 C 424.824219 176.105469 425.410156 176.382812 425.984375 176.6875 C 426.554688 176.996094 427.113281 177.328125 427.652344 177.691406 C 428.191406 178.050781 428.714844 178.4375 429.214844 178.851562 C 429.71875 179.261719 430.199219 179.699219 430.660156 180.15625 C 431.117188 180.617188 431.554688 181.097656 431.964844 181.601562 C 432.378906 182.101562 432.765625 182.625 433.125 183.164062 C 433.488281 183.703125 433.820312 184.261719 434.128906 184.832031 C 434.433594 185.40625 434.710938 185.992188 434.960938 186.59375 C 435.210938 187.191406 435.429688 187.804688 435.617188 188.425781 C 435.808594 189.046875 435.964844 189.675781 436.09375 190.3125 C 436.21875 190.949219 436.316406 191.59375 436.378906 192.238281 C 436.445312 192.886719 436.476562 193.535156 436.476562 194.183594 L 436.476562 390.28125 C 436.476562 390.933594 436.445312 391.582031 436.378906 392.226562 C 436.316406 392.875 436.21875 393.515625 436.089844 394.152344 C 435.964844 394.789062 435.804688 395.417969 435.617188 396.039062 C 435.425781 396.660156 435.207031 397.273438 434.960938 397.871094 C 434.710938 398.472656 434.433594 399.058594 434.125 399.632812 C 433.820312 400.203125 433.484375 400.761719 433.125 401.300781 C 432.761719 401.839844 432.375 402.363281 431.964844 402.863281 C 431.550781 403.367188 431.117188 403.847656 430.65625 404.304688 C 430.199219 404.765625 429.714844 405.199219 429.214844 405.613281 C 428.710938 406.023438 428.191406 406.410156 427.652344 406.773438 C 427.109375 407.132812 426.554688 407.46875 425.980469 407.773438 C 425.410156 408.078125 424.824219 408.355469 424.222656 408.605469 C 423.621094 408.855469 423.011719 409.074219 422.390625 409.261719 C 421.769531 409.453125 421.140625 409.609375 420.5 409.738281 C 419.863281 409.863281 419.222656 409.960938 418.578125 410.023438 C 417.929688 410.089844 417.28125 410.121094 416.632812 410.121094 Z M 289.011719 179.707031 C 288.0625 179.707031 287.121094 179.800781 286.1875 179.988281 C 285.253906 180.171875 284.351562 180.445312 283.472656 180.8125 C 282.59375 181.175781 281.757812 181.621094 280.96875 182.148438 C 280.175781 182.675781 279.445312 183.277344 278.773438 183.949219 C 278.101562 184.621094 277.5 185.351562 276.972656 186.144531 C 276.445312 186.933594 276 187.769531 275.632812 188.648438 C 275.269531 189.527344 274.996094 190.429688 274.8125 191.363281 C 274.625 192.296875 274.53125 193.238281 274.53125 194.1875 L 274.53125 390.289062 C 274.53125 391.238281 274.625 392.179688 274.8125 393.113281 C 274.996094 394.046875 275.269531 394.953125 275.632812 395.828125 C 276 396.707031 276.445312 397.542969 276.972656 398.332031 C 277.5 399.125 278.101562 399.855469 278.773438 400.527344 C 279.445312 401.199219 280.175781 401.800781 280.96875 402.328125 C 281.757812 402.855469 282.59375 403.300781 283.472656 403.667969 C 284.351562 404.03125 285.253906 404.304688 286.1875 404.492188 C 287.121094 404.675781 288.0625 404.769531 289.011719 404.769531 L 416.632812 404.769531 C 417.582031 404.769531 418.523438 404.675781 419.457031 404.492188 C 420.390625 404.304688 421.296875 404.03125 422.175781 403.667969 C 423.050781 403.300781 423.886719 402.855469 424.675781 402.328125 C 425.46875 401.800781 426.199219 401.199219 426.871094 400.527344 C 427.542969 399.855469 428.144531 399.125 428.671875 398.332031 C 429.199219 397.542969 429.648438 396.707031 430.011719 395.828125 C 430.375 394.953125 430.648438 394.046875 430.835938 393.113281 C 431.019531 392.179688 431.113281 391.238281 431.113281 390.289062 L 431.113281 194.183594 C 431.113281 193.234375 431.019531 192.289062 430.835938 191.359375 C 430.648438 190.425781 430.375 189.519531 430.011719 188.640625 C 429.648438 187.761719 429.199219 186.929688 428.671875 186.136719 C 428.144531 185.347656 427.542969 184.617188 426.871094 183.945312 C 426.199219 183.273438 425.46875 182.671875 424.675781 182.144531 C 423.886719 181.613281 423.050781 181.167969 422.175781 180.804688 C 421.296875 180.441406 420.390625 180.167969 419.457031 179.980469 C 418.523438 179.796875 417.582031 179.703125 416.632812 179.703125 Z M 289.011719 179.707031 " fill-opacity="1" fill-rule="nonzero"/></g><path fill="#000000" d="M 421.050781 378.257812 L 284.609375 378.257812 C 284.25 378.257812 283.910156 378.1875 283.582031 378.050781 C 283.253906 377.917969 282.960938 377.722656 282.710938 377.472656 C 282.460938 377.21875 282.265625 376.929688 282.128906 376.601562 C 281.992188 376.273438 281.925781 375.929688 281.925781 375.574219 L 281.925781 208.890625 C 281.925781 208.535156 281.992188 208.195312 282.128906 207.867188 C 282.265625 207.535156 282.460938 207.246094 282.710938 206.996094 C 282.960938 206.742188 283.253906 206.550781 283.582031 206.414062 C 283.910156 206.277344 284.25 206.210938 284.609375 206.210938 L 421.050781 206.210938 C 421.40625 206.210938 421.746094 206.277344 422.074219 206.414062 C 422.402344 206.550781 422.695312 206.742188 422.945312 206.996094 C 423.195312 207.246094 423.390625 207.535156 423.527344 207.867188 C 423.664062 208.195312 423.730469 208.535156 423.730469 208.890625 L 423.730469 375.574219 C 423.730469 375.929688 423.664062 376.273438 423.527344 376.601562 C 423.390625 376.929688 423.195312 377.21875 422.945312 377.472656 C 422.695312 377.722656 422.402344 377.917969 422.074219 378.050781 C 421.746094 378.1875 421.40625 378.257812 421.050781 378.257812 Z M 287.289062 372.894531 L 418.367188 372.894531 L 418.367188 211.574219 L 287.289062 211.574219 Z M 287.289062 372.894531 " fill-opacity="1" fill-rule="nonzero"/><path fill="#000000" d="M 372.84375 196.046875 L 332.800781 196.046875 C 332.445312 196.046875 332.105469 195.980469 331.777344 195.84375 C 331.449219 195.707031 331.15625 195.511719 330.90625 195.261719 C 330.65625 195.011719 330.460938 194.71875 330.324219 194.390625 C 330.1875 194.0625 330.121094 193.722656 330.121094 193.367188 C 330.121094 193.011719 330.1875 192.667969 330.324219 192.339844 C 330.460938 192.011719 330.65625 191.722656 330.90625 191.46875 C 331.15625 191.21875 331.449219 191.023438 331.777344 190.886719 C 332.105469 190.75 332.445312 190.683594 332.800781 190.683594 L 372.84375 190.683594 C 373.199219 190.683594 373.539062 190.75 373.871094 190.886719 C 374.199219 191.023438 374.488281 191.21875 374.738281 191.46875 C 374.992188 191.722656 375.183594 192.011719 375.320312 192.339844 C 375.457031 192.667969 375.523438 193.011719 375.523438 193.367188 C 375.523438 193.722656 375.457031 194.0625 375.320312 194.390625 C 375.183594 194.71875 374.992188 195.011719 374.738281 195.261719 C 374.488281 195.511719 374.199219 195.707031 373.871094 195.84375 C 373.539062 195.980469 373.199219 196.046875 372.84375 196.046875 Z M 372.84375 196.046875 " fill-opacity="1" fill-rule="nonzero"/><path fill="#000000" d="M 322.945312 196.046875 L 318.351562 196.046875 C 317.996094 196.046875 317.652344 195.980469 317.324219 195.84375 C 316.996094 195.707031 316.707031 195.511719 316.453125 195.261719 C 316.203125 195.011719 316.007812 194.71875 315.875 194.390625 C 315.738281 194.0625 315.667969 193.722656 315.667969 193.367188 C 315.667969 193.011719 315.738281 192.667969 315.875 192.339844 C 316.007812 192.011719 316.203125 191.722656 316.453125 191.46875 C 316.707031 191.21875 316.996094 191.023438 317.324219 190.886719 C 317.652344 190.75 317.996094 190.683594 318.351562 190.683594 L 322.945312 190.683594 C 323.300781 190.683594 323.640625 190.75 323.972656 190.886719 C 324.300781 191.023438 324.589844 191.21875 324.839844 191.46875 C 325.09375 191.722656 325.285156 192.011719 325.421875 192.339844 C 325.558594 192.667969 325.625 193.011719 325.625 193.367188 C 325.625 193.722656 325.558594 194.0625 325.421875 194.390625 C 325.285156 194.71875 325.09375 195.011719 324.839844 195.261719 C 324.589844 195.511719 324.300781 195.707031 323.972656 195.84375 C 323.640625 195.980469 323.300781 196.046875 322.945312 196.046875 Z M 322.945312 196.046875 " fill-opacity="1" fill-rule="nonzero"/><path fill="#000000" d="M 352.820312 401.660156 C 352.140625 401.660156 351.46875 401.59375 350.800781 401.460938 C 350.136719 401.328125 349.488281 401.132812 348.859375 400.875 C 348.230469 400.613281 347.632812 400.292969 347.070312 399.917969 C 346.503906 399.539062 345.980469 399.109375 345.5 398.628906 C 345.019531 398.148438 344.589844 397.625 344.210938 397.0625 C 343.835938 396.496094 343.515625 395.898438 343.253906 395.273438 C 342.996094 394.644531 342.800781 393.996094 342.667969 393.328125 C 342.535156 392.664062 342.46875 391.988281 342.46875 391.308594 C 342.46875 390.628906 342.535156 389.957031 342.667969 389.289062 C 342.796875 388.625 342.996094 387.976562 343.253906 387.347656 C 343.515625 386.722656 343.832031 386.125 344.210938 385.558594 C 344.589844 384.996094 345.019531 384.472656 345.5 383.992188 C 345.980469 383.511719 346.503906 383.082031 347.066406 382.703125 C 347.632812 382.328125 348.230469 382.007812 348.855469 381.746094 C 349.484375 381.488281 350.132812 381.289062 350.800781 381.160156 C 351.464844 381.027344 352.140625 380.960938 352.820312 380.960938 C 353.5 380.960938 354.171875 381.027344 354.839844 381.160156 C 355.503906 381.292969 356.152344 381.488281 356.78125 381.746094 C 357.410156 382.007812 358.003906 382.328125 358.570312 382.703125 C 359.136719 383.082031 359.660156 383.511719 360.140625 383.992188 C 360.621094 384.472656 361.050781 384.996094 361.425781 385.5625 C 361.804688 386.125 362.121094 386.722656 362.382812 387.351562 C 362.644531 387.980469 362.839844 388.625 362.972656 389.292969 C 363.105469 389.960938 363.171875 390.632812 363.171875 391.3125 C 363.167969 391.992188 363.101562 392.664062 362.96875 393.332031 C 362.835938 393.996094 362.640625 394.644531 362.378906 395.269531 C 362.121094 395.898438 361.800781 396.496094 361.421875 397.058594 C 361.046875 397.625 360.617188 398.148438 360.136719 398.625 C 359.65625 399.105469 359.132812 399.535156 358.570312 399.914062 C 358.003906 400.292969 357.40625 400.609375 356.78125 400.871094 C 356.152344 401.128906 355.507812 401.328125 354.839844 401.460938 C 354.171875 401.59375 353.5 401.660156 352.820312 401.660156 Z M 352.820312 386.324219 C 352.492188 386.324219 352.167969 386.355469 351.847656 386.417969 C 351.527344 386.480469 351.214844 386.574219 350.914062 386.699219 C 350.609375 386.828125 350.324219 386.980469 350.050781 387.160156 C 349.777344 387.34375 349.527344 387.550781 349.292969 387.78125 C 349.0625 388.011719 348.855469 388.265625 348.671875 388.535156 C 348.492188 388.808594 348.335938 389.097656 348.210938 389.398438 C 348.085938 389.703125 347.992188 390.011719 347.925781 390.335938 C 347.863281 390.65625 347.832031 390.980469 347.832031 391.308594 C 347.832031 391.636719 347.863281 391.960938 347.925781 392.28125 C 347.988281 392.601562 348.085938 392.914062 348.210938 393.214844 C 348.335938 393.519531 348.488281 393.804688 348.671875 394.078125 C 348.851562 394.351562 349.058594 394.601562 349.289062 394.835938 C 349.519531 395.066406 349.773438 395.273438 350.046875 395.457031 C 350.316406 395.636719 350.605469 395.792969 350.90625 395.917969 C 351.210938 396.042969 351.523438 396.136719 351.84375 396.203125 C 352.164062 396.265625 352.488281 396.296875 352.816406 396.296875 C 353.144531 396.296875 353.46875 396.265625 353.789062 396.203125 C 354.109375 396.140625 354.421875 396.042969 354.726562 395.917969 C 355.027344 395.792969 355.316406 395.640625 355.585938 395.457031 C 355.859375 395.277344 356.113281 395.070312 356.34375 394.839844 C 356.574219 394.605469 356.78125 394.355469 356.964844 394.082031 C 357.148438 393.8125 357.300781 393.523438 357.425781 393.222656 C 357.550781 392.917969 357.644531 392.605469 357.710938 392.285156 C 357.773438 391.964844 357.804688 391.640625 357.808594 391.3125 C 357.804688 390.984375 357.773438 390.660156 357.710938 390.339844 C 357.648438 390.019531 357.550781 389.707031 357.425781 389.40625 C 357.300781 389.101562 357.148438 388.816406 356.964844 388.542969 C 356.785156 388.269531 356.578125 388.019531 356.347656 387.785156 C 356.113281 387.554688 355.863281 387.347656 355.589844 387.167969 C 355.320312 386.984375 355.03125 386.832031 354.730469 386.703125 C 354.425781 386.578125 354.117188 386.484375 353.792969 386.417969 C 353.472656 386.355469 353.148438 386.324219 352.820312 386.324219 Z M 352.820312 386.324219 " fill-opacity="1" fill-rule="nonzero"/><path fill="#000000" d="M 334.339844 248.257812 C 333.433594 247.851562 332.605469 247.324219 331.859375 246.671875 C 331.109375 246.019531 330.476562 245.273438 329.953125 244.429688 C 329.429688 243.585938 329.042969 242.6875 328.789062 241.726562 C 328.539062 240.765625 328.429688 239.792969 328.472656 238.800781 L 328.472656 223.351562 C 328.464844 222.855469 328.632812 222.433594 328.980469 222.082031 C 329.316406 221.714844 329.734375 221.539062 330.230469 221.546875 C 330.46875 221.546875 330.699219 221.589844 330.917969 221.683594 C 331.140625 221.773438 331.332031 221.902344 331.503906 222.070312 C 331.671875 222.238281 331.800781 222.433594 331.894531 222.65625 C 331.984375 222.875 332.03125 223.105469 332.03125 223.34375 L 332.03125 238.914062 C 331.984375 240.351562 332.34375 241.679688 333.101562 242.898438 C 333.808594 243.992188 334.753906 244.816406 335.9375 245.367188 C 337.128906 245.914062 338.378906 246.1875 339.691406 246.1875 C 341.003906 246.1875 342.253906 245.914062 343.445312 245.367188 C 344.628906 244.816406 345.574219 243.992188 346.28125 242.898438 C 347.039062 241.679688 347.398438 240.351562 347.355469 238.914062 L 347.355469 223.351562 C 347.34375 222.855469 347.515625 222.433594 347.859375 222.082031 C 348.199219 221.714844 348.617188 221.539062 349.113281 221.546875 C 349.351562 221.546875 349.582031 221.589844 349.800781 221.683594 C 350.019531 221.773438 350.214844 221.902344 350.382812 222.070312 C 350.554688 222.238281 350.683594 222.433594 350.773438 222.65625 C 350.867188 222.875 350.910156 223.105469 350.914062 223.34375 L 350.914062 238.792969 C 350.984375 240.933594 350.4375 242.898438 349.269531 244.691406 C 348.203125 246.28125 346.796875 247.46875 345.054688 248.257812 C 343.355469 249.039062 341.566406 249.433594 339.691406 249.433594 C 337.816406 249.433594 336.03125 249.039062 334.328125 248.257812 Z M 334.339844 248.257812 " fill-opacity="1" fill-rule="nonzero"/><path fill="#000000" d="M 339.699219 249.976562 C 337.75 249.972656 335.886719 249.566406 334.117188 248.753906 C 333.164062 248.328125 332.292969 247.773438 331.507812 247.085938 C 330.71875 246.398438 330.050781 245.613281 329.5 244.726562 C 328.949219 243.839844 328.542969 242.890625 328.273438 241.878906 C 328.007812 240.871094 327.894531 239.84375 327.933594 238.800781 L 327.933594 223.351562 C 327.929688 222.878906 328.058594 222.449219 328.316406 222.058594 C 328.574219 221.664062 328.921875 221.378906 329.355469 221.199219 C 329.789062 221.015625 330.234375 220.972656 330.695312 221.066406 C 331.15625 221.160156 331.554688 221.371094 331.882812 221.707031 C 332.347656 222.15625 332.574219 222.703125 332.566406 223.351562 L 332.566406 238.921875 C 332.527344 240.257812 332.859375 241.492188 333.566406 242.625 C 334.21875 243.632812 335.09375 244.390625 336.183594 244.898438 C 337.300781 245.410156 338.480469 245.667969 339.710938 245.667969 C 340.941406 245.667969 342.121094 245.410156 343.238281 244.898438 C 344.328125 244.390625 345.199219 243.632812 345.851562 242.628906 C 346.550781 241.496094 346.878906 240.265625 346.839844 238.933594 L 346.839844 223.351562 C 346.832031 222.878906 346.960938 222.449219 347.21875 222.058594 C 347.476562 221.664062 347.824219 221.378906 348.257812 221.199219 C 348.691406 221.015625 349.140625 220.972656 349.601562 221.066406 C 350.0625 221.160156 350.457031 221.371094 350.785156 221.707031 C 351.25 222.15625 351.476562 222.703125 351.46875 223.351562 L 351.46875 238.800781 C 351.511719 239.84375 351.398438 240.871094 351.132812 241.878906 C 350.867188 242.886719 350.460938 243.835938 349.910156 244.722656 C 349.359375 245.609375 348.691406 246.394531 347.90625 247.082031 C 347.121094 247.769531 346.253906 248.328125 345.300781 248.753906 C 343.523438 249.570312 341.65625 249.976562 339.699219 249.976562 Z M 330.226562 222.085938 C 329.882812 222.074219 329.597656 222.199219 329.363281 222.453125 C 329.117188 222.699219 329 223 329.003906 223.347656 L 329.003906 238.796875 C 328.941406 240.820312 329.457031 242.679688 330.554688 244.382812 C 331.566406 245.890625 332.902344 247.023438 334.558594 247.773438 C 336.191406 248.519531 337.902344 248.894531 339.695312 248.894531 C 341.488281 248.894531 343.199219 248.519531 344.832031 247.773438 C 346.484375 247.023438 347.820312 245.890625 348.832031 244.382812 C 349.929688 242.679688 350.445312 240.820312 350.382812 238.796875 L 350.382812 223.351562 C 350.382812 223.097656 350.3125 222.867188 350.171875 222.65625 C 350.03125 222.449219 349.847656 222.292969 349.613281 222.195312 C 349.382812 222.097656 349.144531 222.074219 348.894531 222.121094 C 348.648438 222.167969 348.433594 222.277344 348.253906 222.453125 C 348.007812 222.703125 347.886719 223 347.894531 223.351562 L 347.894531 238.921875 C 347.9375 240.464844 347.550781 241.890625 346.730469 243.199219 C 345.96875 244.378906 344.949219 245.265625 343.675781 245.859375 C 342.414062 246.4375 341.085938 246.726562 339.695312 246.726562 C 338.304688 246.726562 336.976562 246.4375 335.710938 245.859375 C 334.4375 245.265625 333.417969 244.378906 332.65625 243.195312 C 331.835938 241.886719 331.445312 240.460938 331.488281 238.917969 L 331.488281 223.351562 C 331.496094 223 331.371094 222.703125 331.117188 222.460938 C 330.878906 222.203125 330.582031 222.082031 330.226562 222.089844 Z M 330.226562 222.085938 " fill-opacity="1" fill-rule="nonzero"/><path fill="#000000" d="M 356.730469 248.757812 C 356.398438 248.441406 356.234375 248.054688 356.238281 247.597656 C 356.230469 247.195312 356.347656 246.828125 356.59375 246.503906 L 365.625 235.386719 L 356.667969 224.355469 C 356.425781 224.03125 356.308594 223.667969 356.320312 223.261719 C 356.3125 223.03125 356.351562 222.808594 356.433594 222.59375 C 356.519531 222.382812 356.644531 222.191406 356.804688 222.03125 C 356.96875 221.867188 357.15625 221.742188 357.371094 221.660156 C 357.585938 221.574219 357.808594 221.535156 358.039062 221.542969 C 358.328125 221.542969 358.601562 221.605469 358.859375 221.734375 C 359.109375 221.855469 359.316406 222.027344 359.484375 222.246094 L 367.738281 232.730469 L 375.992188 222.167969 C 376.308594 221.71875 376.738281 221.507812 377.285156 221.542969 C 377.757812 221.535156 378.160156 221.699219 378.496094 222.03125 C 378.84375 222.351562 379.011719 222.75 379.003906 223.222656 C 379.011719 223.585938 378.90625 223.910156 378.691406 224.203125 L 369.65625 235.351562 L 378.691406 246.457031 C 378.941406 246.75 379.058594 247.089844 379.042969 247.472656 C 379.054688 247.960938 378.894531 248.375 378.554688 248.726562 C 378.371094 248.90625 378.15625 249.042969 377.914062 249.128906 C 377.667969 249.21875 377.417969 249.25 377.160156 249.226562 C 376.902344 249.203125 376.660156 249.128906 376.433594 249 C 376.210938 248.871094 376.023438 248.699219 375.875 248.488281 L 367.503906 237.96875 L 359.25 248.53125 C 358.90625 248.988281 358.449219 249.222656 357.878906 249.230469 C 357.429688 249.238281 357.042969 249.082031 356.730469 248.757812 Z M 356.730469 248.757812 " fill-opacity="1" fill-rule="nonzero"/><path fill="#000000" d="M 377.277344 249.78125 C 376.910156 249.78125 376.566406 249.695312 376.238281 249.527344 C 375.914062 249.355469 375.648438 249.121094 375.4375 248.816406 L 367.507812 238.84375 L 359.671875 248.871094 C 359.484375 249.132812 359.25 249.339844 358.972656 249.5 C 358.691406 249.65625 358.394531 249.746094 358.074219 249.773438 C 357.753906 249.800781 357.445312 249.757812 357.144531 249.644531 C 356.839844 249.535156 356.578125 249.367188 356.351562 249.140625 C 355.910156 248.722656 355.695312 248.210938 355.703125 247.605469 C 355.695312 247.082031 355.847656 246.609375 356.164062 246.1875 L 364.941406 235.386719 L 356.257812 224.695312 C 355.933594 224.269531 355.777344 223.792969 355.789062 223.261719 C 355.769531 222.632812 355.988281 222.09375 356.4375 221.652344 C 356.796875 221.308594 357.222656 221.097656 357.714844 221.027344 C 358.207031 220.953125 358.675781 221.03125 359.117188 221.261719 C 359.4375 221.417969 359.707031 221.640625 359.921875 221.925781 L 367.742188 231.863281 L 375.574219 221.835938 C 375.773438 221.59375 376.011719 221.402344 376.292969 221.261719 C 376.570312 221.117188 376.867188 221.039062 377.179688 221.019531 C 377.496094 221 377.796875 221.046875 378.089844 221.15625 C 378.386719 221.265625 378.644531 221.425781 378.871094 221.644531 C 379.332031 222.070312 379.554688 222.597656 379.546875 223.226562 C 379.550781 223.703125 379.414062 224.132812 379.132812 224.519531 L 370.351562 235.351562 L 379.113281 246.121094 C 379.445312 246.507812 379.601562 246.953125 379.585938 247.460938 C 379.601562 248.09375 379.386719 248.632812 378.945312 249.085938 C 378.496094 249.566406 377.9375 249.796875 377.277344 249.78125 Z M 367.5 237.113281 L 376.289062 248.167969 C 376.433594 248.398438 376.632812 248.558594 376.886719 248.652344 C 377.140625 248.746094 377.398438 248.753906 377.65625 248.675781 C 377.917969 248.59375 378.125 248.445312 378.28125 248.222656 C 378.4375 248 378.511719 247.753906 378.5 247.484375 C 378.519531 247.234375 378.445312 247.015625 378.285156 246.828125 L 368.964844 235.359375 L 378.273438 223.875 C 378.410156 223.683594 378.472656 223.46875 378.46875 223.234375 C 378.476562 222.914062 378.363281 222.644531 378.125 222.429688 C 377.894531 222.199219 377.613281 222.085938 377.285156 222.09375 C 376.925781 222.054688 376.640625 222.1875 376.4375 222.484375 L 367.742188 233.613281 L 359.066406 222.589844 C 358.945312 222.433594 358.796875 222.3125 358.621094 222.230469 C 358.382812 222.105469 358.136719 222.0625 357.871094 222.097656 C 357.609375 222.132812 357.382812 222.242188 357.1875 222.421875 C 356.949219 222.65625 356.839844 222.941406 356.855469 223.273438 C 356.84375 223.5625 356.925781 223.820312 357.097656 224.046875 L 366.320312 235.386719 L 357.011719 246.832031 C 356.847656 247.058594 356.769531 247.308594 356.777344 247.589844 C 356.773438 247.898438 356.882812 248.15625 357.105469 248.367188 C 357.226562 248.488281 357.363281 248.578125 357.523438 248.636719 C 357.683594 248.695312 357.847656 248.714844 358.015625 248.699219 C 358.183594 248.679688 358.339844 248.628906 358.484375 248.539062 C 358.628906 248.449219 358.746094 248.332031 358.835938 248.1875 Z M 367.5 237.113281 " fill-opacity="1" fill-rule="nonzero"/><path fill="#000000" d="M 338.335938 299.25 C 337.429688 298.847656 336.605469 298.316406 335.855469 297.664062 C 335.109375 297.011719 334.472656 296.261719 333.949219 295.417969 C 333.425781 294.574219 333.039062 293.671875 332.785156 292.714844 C 332.53125 291.753906 332.425781 290.777344 332.46875 289.785156 L 332.46875 274.335938 C 332.460938 273.839844 332.628906 273.417969 332.976562 273.0625 C 333.3125 272.699219 333.730469 272.519531 334.226562 272.527344 C 334.464844 272.527344 334.695312 272.574219 334.914062 272.664062 C 335.136719 272.753906 335.332031 272.886719 335.5 273.054688 C 335.667969 273.222656 335.796875 273.417969 335.890625 273.640625 C 335.980469 273.859375 336.027344 274.089844 336.027344 274.328125 L 336.027344 289.882812 C 335.980469 291.320312 336.335938 292.652344 337.097656 293.875 C 337.804688 294.96875 338.75 295.789062 339.933594 296.335938 C 341.125 296.882812 342.375 297.15625 343.6875 297.15625 C 345 297.15625 346.25 296.882812 347.441406 296.335938 C 348.625 295.789062 349.570312 294.96875 350.277344 293.875 C 351.035156 292.652344 351.394531 291.320312 351.347656 289.882812 L 351.347656 274.328125 C 351.339844 273.832031 351.511719 273.410156 351.859375 273.054688 C 352.195312 272.691406 352.613281 272.511719 353.109375 272.519531 C 353.347656 272.519531 353.578125 272.5625 353.796875 272.65625 C 354.019531 272.746094 354.214844 272.878906 354.382812 273.046875 C 354.550781 273.214844 354.679688 273.410156 354.773438 273.632812 C 354.863281 273.851562 354.910156 274.082031 354.90625 274.320312 L 354.90625 289.769531 C 354.980469 291.90625 354.433594 293.875 353.265625 295.667969 C 352.199219 297.261719 350.789062 298.453125 349.042969 299.246094 C 347.339844 300.027344 345.554688 300.417969 343.679688 300.417969 C 341.804688 300.417969 340.019531 300.027344 338.316406 299.246094 Z M 338.335938 299.25 " fill-opacity="1" fill-rule="nonzero"/><path fill="#000000" d="M 343.695312 300.957031 C 341.75 300.957031 339.894531 300.550781 338.125 299.742188 C 336.289062 298.910156 334.808594 297.660156 333.679688 295.988281 C 332.457031 294.105469 331.875 292.039062 331.941406 289.796875 L 331.941406 274.335938 C 331.933594 273.867188 332.058594 273.433594 332.316406 273.039062 C 332.574219 272.644531 332.921875 272.355469 333.355469 272.175781 C 333.789062 271.992188 334.238281 271.949219 334.699219 272.039062 C 335.164062 272.132812 335.558594 272.347656 335.890625 272.683594 C 336.355469 273.136719 336.585938 273.6875 336.574219 274.335938 L 336.574219 289.890625 C 336.535156 291.222656 336.863281 292.453125 337.5625 293.585938 C 338.214844 294.59375 339.085938 295.351562 340.175781 295.855469 C 341.296875 296.367188 342.472656 296.625 343.703125 296.625 C 344.9375 296.625 346.113281 296.367188 347.234375 295.855469 C 348.324219 295.351562 349.195312 294.59375 349.847656 293.585938 C 350.546875 292.449219 350.875 291.21875 350.835938 289.886719 L 350.835938 274.335938 C 350.828125 273.863281 350.953125 273.429688 351.210938 273.035156 C 351.46875 272.644531 351.816406 272.355469 352.25 272.171875 C 352.683594 271.992188 353.132812 271.945312 353.59375 272.039062 C 354.054688 272.128906 354.449219 272.34375 354.78125 272.679688 C 355.25 273.132812 355.476562 273.683594 355.464844 274.335938 L 355.464844 289.78125 C 355.53125 292.027344 354.953125 294.089844 353.730469 295.972656 C 352.605469 297.644531 351.125 298.894531 349.285156 299.726562 C 347.511719 300.542969 345.648438 300.953125 343.695312 300.957031 Z M 334.226562 273.070312 C 333.882812 273.0625 333.59375 273.183594 333.359375 273.4375 C 333.113281 273.6875 332.996094 273.988281 333.003906 274.335938 L 333.003906 289.785156 C 332.941406 291.808594 333.457031 293.667969 334.554688 295.371094 C 335.566406 296.878906 336.902344 298.011719 338.558594 298.761719 C 340.1875 299.507812 341.898438 299.882812 343.691406 299.882812 C 345.488281 299.882812 347.199219 299.507812 348.828125 298.761719 C 350.484375 298.011719 351.820312 296.878906 352.832031 295.367188 C 353.929688 293.667969 354.445312 291.808594 354.378906 289.785156 L 354.378906 274.335938 C 354.390625 273.984375 354.265625 273.6875 354.007812 273.445312 C 353.894531 273.324219 353.761719 273.230469 353.609375 273.164062 C 353.457031 273.097656 353.296875 273.066406 353.128906 273.066406 C 352.964844 273.066406 352.804688 273.097656 352.652344 273.164062 C 352.5 273.230469 352.363281 273.324219 352.25 273.445312 C 352.003906 273.691406 351.886719 273.992188 351.894531 274.34375 L 351.894531 289.894531 C 351.9375 291.441406 351.550781 292.871094 350.730469 294.183594 C 349.96875 295.363281 348.949219 296.25 347.671875 296.839844 C 346.410156 297.421875 345.082031 297.710938 343.691406 297.710938 C 342.300781 297.710938 340.972656 297.421875 339.707031 296.839844 C 338.433594 296.253906 337.414062 295.367188 336.652344 294.1875 C 335.832031 292.875 335.441406 291.445312 335.488281 289.898438 L 335.488281 274.34375 C 335.496094 273.992188 335.375 273.695312 335.117188 273.453125 C 334.875 273.195312 334.578125 273.066406 334.226562 273.070312 Z M 334.226562 273.070312 " fill-opacity="1" fill-rule="nonzero"/><path fill="#000000" d="M 362.820312 299.71875 C 362.472656 299.378906 362.300781 298.960938 362.3125 298.46875 L 362.3125 274.335938 C 362.300781 273.839844 362.472656 273.414062 362.820312 273.0625 C 363.160156 272.699219 363.574219 272.519531 364.070312 272.527344 C 364.308594 272.527344 364.539062 272.574219 364.757812 272.664062 C 364.980469 272.757812 365.175781 272.886719 365.34375 273.054688 C 365.511719 273.226562 365.640625 273.417969 365.734375 273.640625 C 365.824219 273.859375 365.871094 274.089844 365.871094 274.328125 L 365.871094 298.460938 C 365.878906 298.960938 365.699219 299.375 365.335938 299.710938 C 364.980469 300.058594 364.558594 300.226562 364.0625 300.222656 C 363.578125 300.230469 363.164062 300.0625 362.820312 299.71875 Z M 362.820312 299.71875 " fill-opacity="1" fill-rule="nonzero"/><path fill="#000000" d="M 364.070312 300.765625 C 363.433594 300.777344 362.890625 300.554688 362.445312 300.101562 C 361.988281 299.652344 361.765625 299.109375 361.777344 298.46875 L 361.777344 274.335938 C 361.769531 273.695312 361.988281 273.144531 362.4375 272.6875 C 362.65625 272.46875 362.90625 272.304688 363.191406 272.1875 C 363.476562 272.070312 363.773438 272.011719 364.082031 272.011719 C 364.390625 272.011719 364.6875 272.070312 364.972656 272.1875 C 365.253906 272.304688 365.507812 272.46875 365.726562 272.6875 C 366.191406 273.140625 366.417969 273.691406 366.410156 274.34375 L 366.410156 298.476562 C 366.421875 299.125 366.191406 299.671875 365.71875 300.113281 C 365.257812 300.558594 364.710938 300.777344 364.070312 300.765625 Z M 363.195312 299.34375 C 363.316406 299.457031 363.453125 299.546875 363.605469 299.605469 C 363.757812 299.667969 363.917969 299.699219 364.085938 299.699219 C 364.25 299.699219 364.410156 299.667969 364.5625 299.605469 C 364.714844 299.546875 364.851562 299.457031 364.972656 299.34375 C 365.222656 299.109375 365.34375 298.820312 365.335938 298.476562 L 365.335938 274.34375 C 365.34375 273.992188 365.21875 273.695312 364.964844 273.453125 C 364.785156 273.269531 364.574219 273.15625 364.324219 273.105469 C 364.078125 273.054688 363.835938 273.078125 363.601562 273.175781 C 363.367188 273.277344 363.183594 273.429688 363.046875 273.644531 C 362.90625 273.859375 362.84375 274.089844 362.847656 274.34375 L 362.847656 298.476562 C 362.839844 298.816406 362.957031 299.105469 363.195312 299.34375 Z M 363.195312 299.34375 " fill-opacity="1" fill-rule="nonzero"/><path fill="#000000" d="M 405.167969 262.515625 L 300.46875 262.515625 C 300.109375 262.515625 299.769531 262.445312 299.441406 262.308594 C 299.113281 262.171875 298.820312 261.980469 298.570312 261.726562 C 298.320312 261.476562 298.125 261.1875 297.988281 260.859375 C 297.851562 260.53125 297.785156 260.1875 297.785156 259.832031 C 297.785156 259.476562 297.851562 259.132812 297.988281 258.804688 C 298.125 258.476562 298.320312 258.1875 298.570312 257.9375 C 298.820312 257.683594 299.113281 257.492188 299.441406 257.355469 C 299.769531 257.21875 300.109375 257.152344 300.46875 257.152344 L 405.167969 257.152344 C 405.523438 257.152344 405.867188 257.21875 406.195312 257.355469 C 406.523438 257.492188 406.8125 257.683594 407.0625 257.9375 C 407.316406 258.1875 407.507812 258.476562 407.644531 258.804688 C 407.78125 259.132812 407.851562 259.476562 407.851562 259.832031 C 407.851562 260.1875 407.78125 260.53125 407.644531 260.859375 C 407.507812 261.1875 407.316406 261.476562 407.0625 261.726562 C 406.8125 261.980469 406.523438 262.171875 406.195312 262.308594 C 405.867188 262.445312 405.523438 262.515625 405.167969 262.515625 Z M 405.167969 262.515625 " fill-opacity="1" fill-rule="nonzero"/><path fill="#000000" d="M 402.929688 362.195312 L 302.726562 362.195312 C 302.371094 362.195312 302.03125 362.125 301.703125 361.988281 C 301.371094 361.855469 301.082031 361.660156 300.832031 361.410156 C 300.578125 361.15625 300.386719 360.867188 300.25 360.539062 C 300.113281 360.210938 300.046875 359.867188 300.046875 359.511719 C 300.046875 359.15625 300.113281 358.816406 300.25 358.488281 C 300.386719 358.15625 300.578125 357.867188 300.832031 357.617188 C 301.082031 357.363281 301.371094 357.171875 301.703125 357.035156 C 302.03125 356.898438 302.371094 356.832031 302.726562 356.832031 L 402.929688 356.832031 C 403.285156 356.832031 403.625 356.898438 403.953125 357.035156 C 404.285156 357.171875 404.574219 357.363281 404.824219 357.617188 C 405.078125 357.867188 405.269531 358.15625 405.40625 358.488281 C 405.542969 358.816406 405.609375 359.15625 405.609375 359.511719 C 405.609375 359.867188 405.542969 360.210938 405.40625 360.539062 C 405.269531 360.867188 405.078125 361.15625 404.824219 361.410156 C 404.574219 361.660156 404.285156 361.855469 403.953125 361.988281 C 403.625 362.125 403.285156 362.195312 402.929688 362.195312 Z M 402.929688 362.195312 " fill-opacity="1" fill-rule="nonzero"/><path fill="#000000" d="M 386.476562 348.765625 L 319.167969 348.765625 C 318.8125 348.765625 318.46875 348.695312 318.140625 348.5625 C 317.8125 348.425781 317.523438 348.230469 317.269531 347.980469 C 317.019531 347.726562 316.824219 347.4375 316.6875 347.109375 C 316.550781 346.78125 316.484375 346.4375 316.484375 346.082031 C 316.484375 345.726562 316.550781 345.386719 316.6875 345.058594 C 316.824219 344.730469 317.019531 344.4375 317.269531 344.1875 C 317.523438 343.9375 317.8125 343.742188 318.140625 343.605469 C 318.46875 343.46875 318.8125 343.402344 319.167969 343.402344 L 386.476562 343.402344 C 386.832031 343.402344 387.175781 343.46875 387.503906 343.605469 C 387.832031 343.742188 388.121094 343.9375 388.371094 344.1875 C 388.625 344.4375 388.816406 344.730469 388.953125 345.058594 C 389.089844 345.386719 389.160156 345.726562 389.160156 346.082031 C 389.160156 346.4375 389.089844 346.78125 388.953125 347.109375 C 388.816406 347.4375 388.625 347.726562 388.371094 347.980469 C 388.121094 348.230469 387.832031 348.425781 387.503906 348.5625 C 387.175781 348.695312 386.832031 348.765625 386.476562 348.765625 Z M 386.476562 348.765625 " fill-opacity="1" fill-rule="nonzero"/><path fill="#000000" d="M 372.222656 336.917969 L 333.417969 336.917969 C 332.929688 336.917969 332.441406 336.867188 331.960938 336.773438 C 331.480469 336.675781 331.011719 336.535156 330.558594 336.347656 C 330.105469 336.15625 329.671875 335.925781 329.265625 335.652344 C 328.855469 335.382812 328.480469 335.070312 328.132812 334.722656 C 327.785156 334.375 327.476562 334 327.203125 333.589844 C 326.929688 333.183594 326.699219 332.75 326.511719 332.296875 C 326.320312 331.84375 326.179688 331.378906 326.082031 330.894531 C 325.988281 330.414062 325.9375 329.925781 325.9375 329.4375 L 325.9375 316.832031 C 325.9375 316.34375 325.988281 315.855469 326.082031 315.375 C 326.179688 314.894531 326.320312 314.425781 326.511719 313.972656 C 326.699219 313.519531 326.929688 313.085938 327.203125 312.679688 C 327.476562 312.269531 327.785156 311.894531 328.132812 311.546875 C 328.480469 311.199219 328.855469 310.890625 329.265625 310.617188 C 329.671875 310.34375 330.105469 310.113281 330.558594 309.925781 C 331.011719 309.734375 331.480469 309.59375 331.960938 309.496094 C 332.441406 309.402344 332.929688 309.351562 333.417969 309.351562 L 372.222656 309.351562 C 372.714844 309.351562 373.199219 309.402344 373.683594 309.496094 C 374.164062 309.59375 374.632812 309.734375 375.085938 309.921875 C 375.539062 310.113281 375.96875 310.34375 376.378906 310.617188 C 376.785156 310.886719 377.164062 311.199219 377.511719 311.546875 C 377.859375 311.894531 378.167969 312.269531 378.441406 312.679688 C 378.714844 313.085938 378.945312 313.519531 379.132812 313.972656 C 379.320312 314.425781 379.464844 314.894531 379.558594 315.375 C 379.65625 315.855469 379.703125 316.34375 379.707031 316.832031 L 379.707031 329.4375 C 379.703125 329.929688 379.65625 330.414062 379.558594 330.894531 C 379.464844 331.378906 379.320312 331.84375 379.132812 332.296875 C 378.945312 332.753906 378.714844 333.183594 378.441406 333.589844 C 378.167969 334 377.859375 334.378906 377.511719 334.722656 C 377.164062 335.070312 376.785156 335.382812 376.378906 335.65625 C 375.96875 335.929688 375.539062 336.160156 375.085938 336.347656 C 374.632812 336.535156 374.164062 336.675781 373.683594 336.773438 C 373.199219 336.871094 372.714844 336.917969 372.222656 336.917969 Z M 333.417969 314.714844 C 333.140625 314.714844 332.867188 314.769531 332.609375 314.878906 C 332.351562 314.984375 332.121094 315.136719 331.921875 315.335938 C 331.722656 315.535156 331.570312 315.765625 331.464844 316.023438 C 331.355469 316.28125 331.300781 316.550781 331.300781 316.832031 L 331.300781 329.4375 C 331.300781 329.71875 331.355469 329.988281 331.464844 330.246094 C 331.570312 330.507812 331.722656 330.734375 331.921875 330.933594 C 332.121094 331.132812 332.351562 331.285156 332.609375 331.394531 C 332.867188 331.5 333.140625 331.554688 333.417969 331.554688 L 372.222656 331.554688 C 372.503906 331.554688 372.773438 331.5 373.035156 331.394531 C 373.292969 331.285156 373.523438 331.132812 373.722656 330.933594 C 373.917969 330.734375 374.074219 330.507812 374.179688 330.246094 C 374.289062 329.988281 374.339844 329.71875 374.34375 329.4375 L 374.34375 316.832031 C 374.339844 316.550781 374.289062 316.28125 374.179688 316.023438 C 374.074219 315.765625 373.917969 315.535156 373.722656 315.335938 C 373.523438 315.136719 373.292969 314.984375 373.035156 314.878906 C 372.773438 314.769531 372.503906 314.714844 372.222656 314.714844 Z M 333.417969 314.714844 " fill-opacity="1" fill-rule="nonzero"/><path fill="#000000" d="M 449.953125 237.164062 L 405.167969 237.164062 C 404.8125 237.164062 404.46875 237.09375 404.140625 236.957031 C 403.8125 236.824219 403.523438 236.628906 403.273438 236.378906 C 403.019531 236.125 402.828125 235.835938 402.691406 235.507812 C 402.554688 235.179688 402.488281 234.835938 402.488281 234.480469 C 402.488281 234.125 402.554688 233.785156 402.691406 233.453125 C 402.828125 233.125 403.019531 232.835938 403.273438 232.585938 C 403.523438 232.332031 403.8125 232.140625 404.140625 232.003906 C 404.46875 231.867188 404.8125 231.800781 405.167969 231.800781 L 449.953125 231.800781 C 450.308594 231.800781 450.648438 231.867188 450.976562 232.003906 C 451.308594 232.140625 451.597656 232.332031 451.847656 232.585938 C 452.101562 232.835938 452.292969 233.125 452.429688 233.453125 C 452.566406 233.785156 452.632812 234.125 452.632812 234.480469 C 452.632812 234.835938 452.566406 235.179688 452.429688 235.507812 C 452.292969 235.835938 452.101562 236.125 451.847656 236.378906 C 451.597656 236.628906 451.308594 236.824219 450.976562 236.957031 C 450.648438 237.09375 450.308594 237.164062 449.953125 237.164062 Z M 449.953125 237.164062 " fill-opacity="1" fill-rule="nonzero"/><g clip-path="url(#id4)"><path fill="#000000" d="M 482.667969 253.527344 L 449.953125 253.527344 C 449.597656 253.527344 449.253906 253.457031 448.925781 253.320312 C 448.597656 253.183594 448.308594 252.992188 448.054688 252.738281 C 447.804688 252.488281 447.609375 252.199219 447.476562 251.871094 C 447.339844 251.542969 447.269531 251.199219 447.269531 250.84375 L 447.269531 218.128906 C 447.269531 217.773438 447.339844 217.433594 447.476562 217.101562 C 447.609375 216.773438 447.804688 216.484375 448.054688 216.234375 C 448.308594 215.980469 448.597656 215.789062 448.925781 215.652344 C 449.253906 215.515625 449.597656 215.449219 449.953125 215.449219 L 482.667969 215.449219 C 483.023438 215.449219 483.367188 215.515625 483.695312 215.652344 C 484.023438 215.789062 484.3125 215.980469 484.566406 216.234375 C 484.816406 216.484375 485.011719 216.773438 485.144531 217.101562 C 485.28125 217.429688 485.351562 217.773438 485.351562 218.128906 L 485.351562 250.84375 C 485.351562 251.199219 485.28125 251.542969 485.144531 251.871094 C 485.011719 252.199219 484.816406 252.488281 484.566406 252.738281 C 484.3125 252.992188 484.023438 253.183594 483.695312 253.320312 C 483.367188 253.457031 483.023438 253.527344 482.667969 253.527344 Z M 452.632812 248.164062 L 479.988281 248.164062 L 479.988281 220.8125 L 452.632812 220.8125 Z M 452.632812 248.164062 " fill-opacity="1" fill-rule="nonzero"/></g><path fill="#000000" d="M 473.144531 232.382812 L 459.46875 232.382812 C 459.109375 232.382812 458.769531 232.316406 458.441406 232.179688 C 458.113281 232.042969 457.820312 231.851562 457.570312 231.597656 C 457.320312 231.347656 457.125 231.058594 456.988281 230.730469 C 456.851562 230.398438 456.785156 230.058594 456.785156 229.703125 C 456.785156 229.347656 456.851562 229.003906 456.988281 228.675781 C 457.125 228.347656 457.320312 228.058594 457.570312 227.804688 C 457.820312 227.554688 458.113281 227.363281 458.441406 227.226562 C 458.769531 227.089844 459.109375 227.019531 459.46875 227.019531 L 473.144531 227.019531 C 473.5 227.019531 473.839844 227.089844 474.167969 227.226562 C 474.5 227.363281 474.789062 227.554688 475.039062 227.804688 C 475.292969 228.058594 475.484375 228.347656 475.621094 228.675781 C 475.757812 229.003906 475.824219 229.347656 475.824219 229.703125 C 475.824219 230.058594 475.757812 230.398438 475.621094 230.730469 C 475.484375 231.058594 475.292969 231.347656 475.039062 231.597656 C 474.789062 231.851562 474.5 232.042969 474.167969 232.179688 C 473.839844 232.316406 473.5 232.382812 473.144531 232.382812 Z M 473.144531 232.382812 " fill-opacity="1" fill-rule="nonzero"/><path fill="#000000" d="M 473.144531 241.945312 L 459.46875 241.945312 C 459.109375 241.945312 458.769531 241.875 458.441406 241.738281 C 458.113281 241.605469 457.820312 241.410156 457.570312 241.160156 C 457.320312 240.90625 457.125 240.617188 456.988281 240.289062 C 456.851562 239.960938 456.785156 239.617188 456.785156 239.261719 C 456.785156 238.90625 456.851562 238.566406 456.988281 238.234375 C 457.125 237.90625 457.320312 237.617188 457.570312 237.367188 C 457.820312 237.113281 458.113281 236.921875 458.441406 236.785156 C 458.769531 236.648438 459.109375 236.582031 459.46875 236.582031 L 473.144531 236.582031 C 473.5 236.582031 473.839844 236.648438 474.167969 236.785156 C 474.5 236.921875 474.789062 237.113281 475.039062 237.367188 C 475.292969 237.617188 475.484375 237.90625 475.621094 238.234375 C 475.757812 238.566406 475.824219 238.90625 475.824219 239.261719 C 475.824219 239.617188 475.757812 239.960938 475.621094 240.289062 C 475.484375 240.617188 475.292969 240.90625 475.039062 241.160156 C 474.789062 241.410156 474.5 241.605469 474.167969 241.738281 C 473.839844 241.875 473.5 241.945312 473.144531 241.945312 Z M 473.144531 241.945312 " fill-opacity="1" fill-rule="nonzero"/><path fill="#000000" d="M 302.726562 288.445312 L 257.945312 288.445312 C 257.585938 288.445312 257.246094 288.378906 256.917969 288.242188 C 256.589844 288.105469 256.296875 287.914062 256.046875 287.660156 C 255.796875 287.410156 255.601562 287.121094 255.464844 286.792969 C 255.328125 286.464844 255.261719 286.121094 255.261719 285.765625 C 255.261719 285.410156 255.328125 285.066406 255.464844 284.738281 C 255.601562 284.410156 255.796875 284.121094 256.046875 283.871094 C 256.296875 283.617188 256.589844 283.425781 256.917969 283.289062 C 257.246094 283.152344 257.585938 283.082031 257.945312 283.082031 L 302.726562 283.082031 C 303.082031 283.082031 303.425781 283.152344 303.753906 283.289062 C 304.082031 283.425781 304.371094 283.617188 304.625 283.871094 C 304.875 284.121094 305.070312 284.410156 305.207031 284.738281 C 305.339844 285.066406 305.410156 285.410156 305.410156 285.765625 C 305.410156 286.121094 305.339844 286.464844 305.207031 286.792969 C 305.070312 287.121094 304.875 287.410156 304.625 287.660156 C 304.371094 287.914062 304.082031 288.105469 303.753906 288.242188 C 303.425781 288.378906 303.082031 288.445312 302.726562 288.445312 Z M 302.726562 288.445312 " fill-opacity="1" fill-rule="nonzero"/><g clip-path="url(#id5)"><path fill="#000000" d="M 257.945312 304.808594 L 225.226562 304.808594 C 224.871094 304.808594 224.527344 304.742188 224.199219 304.605469 C 223.871094 304.46875 223.582031 304.277344 223.332031 304.023438 C 223.078125 303.773438 222.886719 303.484375 222.75 303.152344 C 222.613281 302.824219 222.546875 302.484375 222.546875 302.128906 L 222.546875 269.414062 C 222.546875 269.058594 222.613281 268.714844 222.75 268.386719 C 222.886719 268.058594 223.078125 267.769531 223.332031 267.515625 C 223.582031 267.265625 223.871094 267.070312 224.199219 266.9375 C 224.527344 266.800781 224.871094 266.730469 225.226562 266.730469 L 257.945312 266.730469 C 258.300781 266.730469 258.640625 266.800781 258.96875 266.9375 C 259.296875 267.070312 259.589844 267.265625 259.839844 267.515625 C 260.089844 267.769531 260.285156 268.058594 260.421875 268.386719 C 260.558594 268.714844 260.625 269.058594 260.625 269.414062 L 260.625 302.128906 C 260.625 302.484375 260.558594 302.824219 260.421875 303.152344 C 260.285156 303.484375 260.089844 303.773438 259.839844 304.023438 C 259.589844 304.277344 259.296875 304.46875 258.96875 304.605469 C 258.640625 304.742188 258.300781 304.808594 257.945312 304.808594 Z M 227.910156 299.445312 L 255.261719 299.445312 L 255.261719 272.09375 L 227.910156 272.09375 Z M 227.910156 299.445312 " fill-opacity="1" fill-rule="nonzero"/></g><path fill="#000000" d="M 249.445312 283.664062 L 233.734375 283.664062 C 233.378906 283.664062 233.035156 283.597656 232.707031 283.460938 C 232.378906 283.324219 232.089844 283.132812 231.835938 282.878906 C 231.585938 282.628906 231.390625 282.339844 231.253906 282.011719 C 231.121094 281.683594 231.050781 281.339844 231.050781 280.984375 C 231.050781 280.628906 231.121094 280.285156 231.253906 279.957031 C 231.390625 279.628906 231.585938 279.339844 231.835938 279.089844 C 232.089844 278.835938 232.378906 278.644531 232.707031 278.507812 C 233.035156 278.371094 233.378906 278.300781 233.734375 278.300781 L 249.445312 278.300781 C 249.800781 278.300781 250.144531 278.371094 250.472656 278.507812 C 250.800781 278.644531 251.089844 278.835938 251.339844 279.089844 C 251.59375 279.339844 251.785156 279.628906 251.921875 279.957031 C 252.058594 280.285156 252.125 280.628906 252.125 280.984375 C 252.125 281.339844 252.058594 281.683594 251.921875 282.011719 C 251.785156 282.339844 251.59375 282.628906 251.339844 282.878906 C 251.089844 283.132812 250.800781 283.324219 250.472656 283.460938 C 250.144531 283.597656 249.800781 283.664062 249.445312 283.664062 Z M 249.445312 283.664062 " fill-opacity="1" fill-rule="nonzero"/><path fill="#000000" d="M 249.445312 293.226562 L 233.734375 293.226562 C 233.378906 293.226562 233.035156 293.160156 232.707031 293.023438 C 232.378906 292.886719 232.089844 292.695312 231.835938 292.441406 C 231.585938 292.191406 231.390625 291.902344 231.253906 291.574219 C 231.121094 291.246094 231.050781 290.902344 231.050781 290.546875 C 231.050781 290.191406 231.121094 289.847656 231.253906 289.519531 C 231.390625 289.191406 231.585938 288.902344 231.835938 288.648438 C 232.089844 288.398438 232.378906 288.207031 232.707031 288.070312 C 233.035156 287.933594 233.378906 287.863281 233.734375 287.863281 L 249.445312 287.863281 C 249.800781 287.863281 250.144531 287.933594 250.472656 288.070312 C 250.800781 288.207031 251.089844 288.398438 251.339844 288.648438 C 251.59375 288.902344 251.785156 289.191406 251.921875 289.519531 C 252.058594 289.847656 252.125 290.191406 252.125 290.546875 C 252.125 290.902344 252.058594 291.246094 251.921875 291.574219 C 251.785156 291.902344 251.59375 292.191406 251.339844 292.441406 C 251.089844 292.695312 250.800781 292.886719 250.472656 293.023438 C 250.144531 293.160156 249.800781 293.226562 249.445312 293.226562 Z M 249.445312 293.226562 " fill-opacity="1" fill-rule="nonzero"/><g fill="#000000" fill-opacity="1"><g transform="translate(296.069787, 558.645107)"><g><path d="M 27.703125 -29.46875 L 27.703125 -10.40625 C 27.703125 -8.226562 27.210938 -6.316406 26.234375 -4.671875 C 25.253906 -3.035156 23.84375 -1.78125 22 -0.90625 C 20.164062 -0.03125 17.992188 0.40625 15.484375 0.40625 C 11.691406 0.40625 8.742188 -0.5625 6.640625 -2.5 C 4.546875 -4.445312 3.5 -7.109375 3.5 -10.484375 L 3.5 -29.46875 L 9.734375 -29.46875 L 9.734375 -11.421875 C 9.734375 -9.148438 10.191406 -7.484375 11.109375 -6.421875 C 12.023438 -5.367188 13.535156 -4.84375 15.640625 -4.84375 C 17.679688 -4.84375 19.160156 -5.375 20.078125 -6.4375 C 21.003906 -7.507812 21.46875 -9.1875 21.46875 -11.46875 L 21.46875 -29.46875 Z M 27.703125 -29.46875 "/></g></g></g><g fill="#000000" fill-opacity="1"><g transform="translate(327.267059, 558.645107)"><g><path d="M 7.84375 -11.515625 L 0.578125 -22.53125 L 7.5625 -22.53125 L 11.9375 -15.359375 L 16.34375 -22.53125 L 23.328125 -22.53125 L 15.984375 -11.515625 L 23.671875 0 L 16.671875 0 L 11.9375 -7.71875 L 7.171875 0 L 0.203125 0 Z M 7.84375 -11.515625 "/></g></g></g><g fill="#000000" fill-opacity="1"><g transform="translate(351.128539, 558.645107)"><g><path d="M 16.84375 -29.46875 L 5.859375 0 L 0.28125 0 L 11.265625 -29.46875 Z M 16.84375 -29.46875 "/></g></g></g><g fill="#000000" fill-opacity="1"><g transform="translate(368.178212, 558.645107)"><g><path d="M 27.703125 -29.46875 L 27.703125 -10.40625 C 27.703125 -8.226562 27.210938 -6.316406 26.234375 -4.671875 C 25.253906 -3.035156 23.84375 -1.78125 22 -0.90625 C 20.164062 -0.03125 17.992188 0.40625 15.484375 0.40625 C 11.691406 0.40625 8.742188 -0.5625 6.640625 -2.5 C 4.546875 -4.445312 3.5 -7.109375 3.5 -10.484375 L 3.5 -29.46875 L 9.734375 -29.46875 L 9.734375 -11.421875 C 9.734375 -9.148438 10.191406 -7.484375 11.109375 -6.421875 C 12.023438 -5.367188 13.535156 -4.84375 15.640625 -4.84375 C 17.679688 -4.84375 19.160156 -5.375 20.078125 -6.4375 C 21.003906 -7.507812 21.46875 -9.1875 21.46875 -11.46875 L 21.46875 -29.46875 Z M 27.703125 -29.46875 "/></g></g></g><g fill="#000000" fill-opacity="1"><g transform="translate(399.375484, 558.645107)"><g><path d="M 2.96875 -28.359375 C 2.96875 -30.359375 4.082031 -31.359375 6.3125 -31.359375 C 8.539062 -31.359375 9.65625 -30.359375 9.65625 -28.359375 C 9.65625 -27.398438 9.375 -26.65625 8.8125 -26.125 C 8.257812 -25.601562 7.425781 -25.34375 6.3125 -25.34375 C 4.082031 -25.34375 2.96875 -26.347656 2.96875 -28.359375 Z M 9.375 0 L 3.21875 0 L 3.21875 -22.53125 L 9.375 -22.53125 Z M 9.375 0 "/></g></g></g></svg>