<svg xmlns="http://www.w3.org/2000/svg" xmlns:xlink="http://www.w3.org/1999/xlink" width="940" zoomAndPan="magnify" viewBox="0 0 705 591.000005" height="788" preserveAspectRatio="xMidYMid meet" version="1.0"><defs><g/><clipPath id="id1"><path d="M 62.640625 0 L 645.152344 0 L 645.152344 590 L 62.640625 590 Z M 62.640625 0 " clip-rule="nonzero"/></clipPath><clipPath id="id2"><path d="M 152.914062 91.066406 L 554.984375 91.066406 L 554.984375 493.136719 L 152.914062 493.136719 Z M 152.914062 91.066406 " clip-rule="nonzero"/></clipPath><clipPath id="id3"><path d="M 236.023438 177 L 471.871094 177 L 471.871094 412.851562 L 236.023438 412.851562 Z M 236.023438 177 " clip-rule="nonzero"/></clipPath></defs><g clip-path="url(#id1)"><path fill="#66b1f1" d="M 62.640625 0 L 645.152344 0 L 645.152344 643.160156 L 62.640625 643.160156 L 62.640625 0 " fill-opacity="1" fill-rule="nonzero"/></g><g clip-path="url(#id2)"><path fill="#666565" d="M 353.949219 91.066406 C 242.921875 91.066406 152.914062 181.074219 152.914062 292.101562 C 152.914062 403.128906 242.921875 493.136719 353.949219 493.136719 C 464.976562 493.136719 554.984375 403.128906 554.984375 292.101562 C 554.984375 181.074219 464.976562 91.066406 353.949219 91.066406 " fill-opacity="1" fill-rule="nonzero"/></g><g fill="#000000" fill-opacity="1"><g transform="translate(253.204818, 558.645107)"><g><path d="M 9.859375 0 L 3.703125 0 L 3.703125 -29.46875 L 20.59375 -29.46875 L 20.59375 -24.34375 L 9.859375 -24.34375 L 9.859375 -16.75 L 19.859375 -16.75 L 19.859375 -11.65625 L 9.859375 -11.65625 Z M 9.859375 0 "/></g></g></g><g fill="#000000" fill-opacity="1"><g transform="translate(275.857101, 558.645107)"><g><path d="M 15.796875 -22.953125 C 16.628906 -22.953125 17.320312 -22.894531 17.875 -22.78125 L 17.421875 -17.015625 C 16.921875 -17.148438 16.3125 -17.21875 15.59375 -17.21875 C 13.632812 -17.21875 12.109375 -16.710938 11.015625 -15.703125 C 9.921875 -14.691406 9.375 -13.28125 9.375 -11.46875 L 9.375 0 L 3.21875 0 L 3.21875 -22.53125 L 7.875 -22.53125 L 8.78125 -18.75 L 9.09375 -18.75 C 9.789062 -20.007812 10.734375 -21.023438 11.921875 -21.796875 C 13.109375 -22.566406 14.398438 -22.953125 15.796875 -22.953125 Z M 15.796875 -22.953125 "/></g></g></g><g fill="#000000" fill-opacity="1"><g transform="translate(294.599648, 558.645107)"><g><path d="M 8.125 -11.3125 C 8.125 -9.082031 8.488281 -7.394531 9.21875 -6.25 C 9.957031 -5.101562 11.148438 -4.53125 12.796875 -4.53125 C 14.441406 -4.53125 15.625 -5.097656 16.34375 -6.234375 C 17.0625 -7.367188 17.421875 -9.0625 17.421875 -11.3125 C 17.421875 -13.539062 17.054688 -15.210938 16.328125 -16.328125 C 15.597656 -17.441406 14.410156 -18 12.765625 -18 C 11.117188 -18 9.929688 -17.441406 9.203125 -16.328125 C 8.484375 -15.222656 8.125 -13.550781 8.125 -11.3125 Z M 23.703125 -11.3125 C 23.703125 -7.644531 22.734375 -4.773438 20.796875 -2.703125 C 18.867188 -0.628906 16.175781 0.40625 12.71875 0.40625 C 10.550781 0.40625 8.640625 -0.0664062 6.984375 -1.015625 C 5.335938 -1.960938 4.070312 -3.320312 3.1875 -5.09375 C 2.300781 -6.875 1.859375 -8.945312 1.859375 -11.3125 C 1.859375 -14.988281 2.816406 -17.847656 4.734375 -19.890625 C 6.660156 -21.929688 9.363281 -22.953125 12.84375 -22.953125 C 15 -22.953125 16.90625 -22.484375 18.5625 -21.546875 C 20.21875 -20.609375 21.488281 -19.257812 22.375 -17.5 C 23.257812 -15.738281 23.703125 -13.675781 23.703125 -11.3125 Z M 23.703125 -11.3125 "/></g></g></g><g fill="#000000" fill-opacity="1"><g transform="translate(320.154004, 558.645107)"><g><path d="M 24.03125 0 L 17.875 0 L 17.875 -13.15625 C 17.875 -14.78125 17.582031 -16 17 -16.8125 C 16.425781 -17.632812 15.507812 -18.046875 14.25 -18.046875 C 12.53125 -18.046875 11.285156 -17.46875 10.515625 -16.3125 C 9.753906 -15.164062 9.375 -13.265625 9.375 -10.609375 L 9.375 0 L 3.21875 0 L 3.21875 -22.53125 L 7.921875 -22.53125 L 8.75 -19.65625 L 9.09375 -19.65625 C 9.78125 -20.738281 10.722656 -21.554688 11.921875 -22.109375 C 13.128906 -22.671875 14.5 -22.953125 16.03125 -22.953125 C 18.644531 -22.953125 20.628906 -22.242188 21.984375 -20.828125 C 23.347656 -19.410156 24.03125 -17.363281 24.03125 -14.6875 Z M 24.03125 0 "/></g></g></g><g fill="#000000" fill-opacity="1"><g transform="translate(347.280314, 558.645107)"><g><path d="M 12.71875 -4.5 C 13.789062 -4.5 15.082031 -4.734375 16.59375 -5.203125 L 16.59375 -0.625 C 15.0625 0.0625 13.175781 0.40625 10.9375 0.40625 C 8.476562 0.40625 6.6875 -0.210938 5.5625 -1.453125 C 4.445312 -2.703125 3.890625 -4.570312 3.890625 -7.0625 L 3.890625 -17.921875 L 0.953125 -17.921875 L 0.953125 -20.515625 L 4.328125 -22.578125 L 6.109375 -27.328125 L 10.03125 -27.328125 L 10.03125 -22.53125 L 16.34375 -22.53125 L 16.34375 -17.921875 L 10.03125 -17.921875 L 10.03125 -7.0625 C 10.03125 -6.1875 10.273438 -5.539062 10.765625 -5.125 C 11.265625 -4.707031 11.914062 -4.5 12.71875 -4.5 Z M 12.71875 -4.5 "/></g></g></g><g fill="#000000" fill-opacity="1"><g transform="translate(365.196577, 558.645107)"><g><path d="M 1.234375 -8.546875 L 1.234375 -13.578125 L 12.046875 -13.578125 L 12.046875 -8.546875 Z M 1.234375 -8.546875 "/></g></g></g><g fill="#000000" fill-opacity="1"><g transform="translate(378.477587, 558.645107)"><g><path d="M 20.6875 0 L 3.703125 0 L 3.703125 -29.46875 L 20.6875 -29.46875 L 20.6875 -24.34375 L 9.953125 -24.34375 L 9.953125 -17.875 L 19.9375 -17.875 L 19.9375 -12.765625 L 9.953125 -12.765625 L 9.953125 -5.15625 L 20.6875 -5.15625 Z M 20.6875 0 "/></g></g></g><g fill="#000000" fill-opacity="1"><g transform="translate(401.593396, 558.645107)"><g><path d="M 24.03125 0 L 17.875 0 L 17.875 -13.15625 C 17.875 -14.78125 17.582031 -16 17 -16.8125 C 16.425781 -17.632812 15.507812 -18.046875 14.25 -18.046875 C 12.53125 -18.046875 11.285156 -17.46875 10.515625 -16.3125 C 9.753906 -15.164062 9.375 -13.265625 9.375 -10.609375 L 9.375 0 L 3.21875 0 L 3.21875 -22.53125 L 7.921875 -22.53125 L 8.75 -19.65625 L 9.09375 -19.65625 C 9.78125 -20.738281 10.722656 -21.554688 11.921875 -22.109375 C 13.128906 -22.671875 14.5 -22.953125 16.03125 -22.953125 C 18.644531 -22.953125 20.628906 -22.242188 21.984375 -20.828125 C 23.347656 -19.410156 24.03125 -17.363281 24.03125 -14.6875 Z M 24.03125 0 "/></g></g></g><g fill="#000000" fill-opacity="1"><g transform="translate(428.719706, 558.645107)"><g><path d="M 10.359375 0.40625 C 7.710938 0.40625 5.632812 -0.617188 4.125 -2.671875 C 2.613281 -4.734375 1.859375 -7.585938 1.859375 -11.234375 C 1.859375 -14.921875 2.625 -17.796875 4.15625 -19.859375 C 5.695312 -21.921875 7.816406 -22.953125 10.515625 -22.953125 C 13.359375 -22.953125 15.523438 -21.851562 17.015625 -19.65625 L 17.21875 -19.65625 C 16.90625 -21.332031 16.75 -22.828125 16.75 -24.140625 L 16.75 -31.359375 L 22.921875 -31.359375 L 22.921875 0 L 18.203125 0 L 17.015625 -2.921875 L 16.75 -2.921875 C 15.351562 -0.703125 13.222656 0.40625 10.359375 0.40625 Z M 12.515625 -4.5 C 14.085938 -4.5 15.238281 -4.953125 15.96875 -5.859375 C 16.707031 -6.773438 17.109375 -8.328125 17.171875 -10.515625 L 17.171875 -11.1875 C 17.171875 -13.601562 16.796875 -15.332031 16.046875 -16.375 C 15.304688 -17.425781 14.097656 -17.953125 12.421875 -17.953125 C 11.046875 -17.953125 9.976562 -17.367188 9.21875 -16.203125 C 8.457031 -15.046875 8.078125 -13.359375 8.078125 -11.140625 C 8.078125 -8.929688 8.457031 -7.269531 9.21875 -6.15625 C 9.988281 -5.050781 11.085938 -4.5 12.515625 -4.5 Z M 12.515625 -4.5 "/></g></g></g><g clip-path="url(#id3)"><path fill="#000000" d="M 446.996094 177 L 260.894531 177 C 260.082031 177 259.269531 177.042969 258.460938 177.121094 C 257.648438 177.203125 256.84375 177.324219 256.046875 177.484375 C 255.246094 177.644531 254.457031 177.839844 253.679688 178.078125 C 252.898438 178.316406 252.132812 178.589844 251.382812 178.902344 C 250.628906 179.214844 249.894531 179.5625 249.175781 179.945312 C 248.457031 180.332031 247.761719 180.75 247.082031 181.203125 C 246.40625 181.652344 245.753906 182.140625 245.125 182.65625 C 244.492188 183.171875 243.890625 183.71875 243.316406 184.292969 C 242.738281 184.871094 242.191406 185.472656 241.675781 186.101562 C 241.160156 186.730469 240.675781 187.386719 240.222656 188.0625 C 239.769531 188.738281 239.351562 189.4375 238.96875 190.15625 C 238.582031 190.875 238.234375 191.609375 237.921875 192.359375 C 237.609375 193.113281 237.335938 193.878906 237.097656 194.65625 C 236.863281 195.4375 236.664062 196.226562 236.503906 197.023438 C 236.34375 197.824219 236.222656 198.628906 236.144531 199.4375 C 236.0625 200.25 236.023438 201.0625 236.023438 201.875 L 236.023438 340.070312 C 236.023438 340.882812 236.0625 341.695312 236.144531 342.507812 C 236.222656 343.316406 236.34375 344.121094 236.503906 344.921875 C 236.664062 345.71875 236.863281 346.507812 237.097656 347.285156 C 237.335938 348.066406 237.609375 348.832031 237.921875 349.585938 C 238.234375 350.335938 238.582031 351.070312 238.96875 351.789062 C 239.351562 352.507812 239.769531 353.207031 240.222656 353.882812 C 240.675781 354.558594 241.160156 355.210938 241.675781 355.84375 C 242.191406 356.472656 242.738281 357.074219 243.316406 357.648438 C 243.890625 358.226562 244.492188 358.773438 245.125 359.289062 C 245.753906 359.804688 246.40625 360.289062 247.082031 360.742188 C 247.761719 361.195312 248.457031 361.613281 249.175781 362 C 249.894531 362.382812 250.628906 362.730469 251.382812 363.042969 C 252.132812 363.355469 252.898438 363.628906 253.679688 363.867188 C 254.457031 364.105469 255.246094 364.300781 256.046875 364.460938 C 256.84375 364.621094 257.648438 364.742188 258.460938 364.820312 C 259.269531 364.902344 260.082031 364.941406 260.894531 364.945312 L 316.3125 364.945312 C 315.113281 369.230469 313.324219 373.257812 310.949219 377.019531 C 308.570312 380.785156 305.707031 384.128906 302.347656 387.054688 L 297.75 387.054688 C 296.839844 387.054688 295.941406 387.144531 295.054688 387.324219 C 294.164062 387.5 293.300781 387.761719 292.460938 388.109375 C 291.625 388.457031 290.828125 388.882812 290.074219 389.390625 C 289.320312 389.894531 288.621094 390.464844 287.980469 391.105469 C 287.339844 391.75 286.765625 392.445312 286.261719 393.199219 C 285.757812 393.953125 285.332031 394.75 284.984375 395.589844 C 284.636719 396.425781 284.375 397.289062 284.195312 398.179688 C 284.019531 399.070312 283.929688 399.96875 283.929688 400.875 L 283.929688 404.558594 C 283.929688 405.105469 283.984375 405.644531 284.089844 406.175781 C 284.195312 406.710938 284.355469 407.230469 284.5625 407.730469 C 284.769531 408.234375 285.027344 408.710938 285.328125 409.164062 C 285.632812 409.617188 285.976562 410.035156 286.359375 410.421875 C 286.746094 410.804688 287.164062 411.148438 287.617188 411.453125 C 288.066406 411.753906 288.546875 412.007812 289.046875 412.21875 C 289.550781 412.425781 290.070312 412.585938 290.601562 412.691406 C 291.136719 412.796875 291.675781 412.851562 292.21875 412.851562 L 415.671875 412.851562 C 416.21875 412.851562 416.757812 412.796875 417.289062 412.691406 C 417.824219 412.585938 418.34375 412.425781 418.84375 412.21875 C 419.347656 412.007812 419.824219 411.753906 420.277344 411.453125 C 420.730469 411.148438 421.148438 410.804688 421.535156 410.421875 C 421.917969 410.035156 422.261719 409.617188 422.566406 409.164062 C 422.867188 408.710938 423.125 408.234375 423.332031 407.730469 C 423.539062 407.230469 423.699219 406.710938 423.804688 406.175781 C 423.910156 405.644531 423.964844 405.105469 423.964844 404.558594 L 423.964844 400.875 C 423.964844 399.96875 423.875 399.070312 423.695312 398.179688 C 423.519531 397.289062 423.257812 396.425781 422.910156 395.589844 C 422.5625 394.75 422.136719 393.953125 421.632812 393.199219 C 421.128906 392.445312 420.554688 391.75 419.914062 391.105469 C 419.273438 390.464844 418.574219 389.894531 417.820312 389.390625 C 417.066406 388.882812 416.269531 388.457031 415.433594 388.109375 C 414.59375 387.761719 413.730469 387.5 412.839844 387.324219 C 411.953125 387.144531 411.054688 387.054688 410.144531 387.054688 L 405.574219 387.054688 C 402.21875 384.128906 399.355469 380.785156 396.976562 377.019531 C 394.601562 373.257812 392.8125 369.230469 391.613281 364.945312 L 446.996094 364.945312 C 447.8125 364.941406 448.625 364.902344 449.433594 364.820312 C 450.246094 364.742188 451.050781 364.621094 451.847656 364.460938 C 452.648438 364.300781 453.4375 364.105469 454.214844 363.867188 C 454.996094 363.628906 455.761719 363.355469 456.511719 363.042969 C 457.265625 362.730469 458 362.382812 458.71875 362 C 459.4375 361.613281 460.132812 361.195312 460.808594 360.742188 C 461.488281 360.289062 462.140625 359.804688 462.769531 359.289062 C 463.398438 358.773438 464.003906 358.226562 464.578125 357.648438 C 465.152344 357.074219 465.699219 356.472656 466.21875 355.84375 C 466.734375 355.210938 467.21875 354.558594 467.671875 353.882812 C 468.125 353.207031 468.542969 352.507812 468.925781 351.789062 C 469.3125 351.070312 469.660156 350.335938 469.972656 349.585938 C 470.285156 348.832031 470.558594 348.066406 470.792969 347.285156 C 471.03125 346.507812 471.230469 345.71875 471.390625 344.921875 C 471.550781 344.121094 471.667969 343.316406 471.75 342.507812 C 471.832031 341.695312 471.871094 340.882812 471.871094 340.070312 L 471.871094 201.875 C 471.871094 201.0625 471.832031 200.25 471.75 199.4375 C 471.667969 198.628906 471.550781 197.824219 471.390625 197.023438 C 471.230469 196.226562 471.03125 195.4375 470.792969 194.65625 C 470.558594 193.878906 470.285156 193.113281 469.972656 192.359375 C 469.660156 191.609375 469.3125 190.875 468.925781 190.15625 C 468.542969 189.4375 468.125 188.738281 467.671875 188.0625 C 467.21875 187.386719 466.734375 186.730469 466.21875 186.101562 C 465.699219 185.472656 465.152344 184.871094 464.578125 184.292969 C 464.003906 183.71875 463.398438 183.171875 462.769531 182.65625 C 462.140625 182.140625 461.488281 181.652344 460.808594 181.203125 C 460.132812 180.75 459.4375 180.332031 458.71875 179.945312 C 458 179.5625 457.265625 179.214844 456.511719 178.902344 C 455.761719 178.589844 454.996094 178.316406 454.214844 178.078125 C 453.4375 177.839844 452.648438 177.644531 451.847656 177.484375 C 451.050781 177.324219 450.246094 177.203125 449.433594 177.121094 C 448.625 177.042969 447.8125 177 446.996094 177 Z M 241.550781 201.875 C 241.550781 201.242188 241.582031 200.609375 241.644531 199.980469 C 241.707031 199.347656 241.800781 198.722656 241.925781 198.101562 C 242.050781 197.480469 242.203125 196.867188 242.386719 196.261719 C 242.570312 195.65625 242.785156 195.058594 243.027344 194.476562 C 243.269531 193.890625 243.542969 193.316406 243.839844 192.757812 C 244.140625 192.203125 244.464844 191.660156 244.816406 191.132812 C 245.167969 190.605469 245.546875 190.097656 245.949219 189.609375 C 246.351562 189.117188 246.773438 188.648438 247.222656 188.203125 C 247.671875 187.753906 248.140625 187.328125 248.628906 186.925781 C 249.117188 186.523438 249.625 186.148438 250.152344 185.796875 C 250.679688 185.445312 251.222656 185.117188 251.78125 184.820312 C 252.339844 184.519531 252.910156 184.25 253.496094 184.007812 C 254.082031 183.765625 254.675781 183.550781 255.28125 183.367188 C 255.890625 183.183594 256.503906 183.027344 257.125 182.902344 C 257.746094 182.78125 258.371094 182.6875 259 182.625 C 259.632812 182.5625 260.261719 182.527344 260.894531 182.527344 L 383.429688 182.527344 L 383.429688 328.09375 L 241.550781 328.09375 Z M 410.144531 392.582031 C 410.691406 392.582031 411.230469 392.636719 411.761719 392.742188 C 412.296875 392.851562 412.816406 393.007812 413.316406 393.214844 C 413.820312 393.425781 414.296875 393.679688 414.75 393.984375 C 415.203125 394.285156 415.621094 394.628906 416.007812 395.015625 C 416.390625 395.398438 416.734375 395.816406 417.039062 396.269531 C 417.339844 396.722656 417.59375 397.199219 417.804688 397.703125 C 418.011719 398.207031 418.171875 398.722656 418.277344 399.257812 C 418.382812 399.792969 418.4375 400.332031 418.4375 400.875 L 418.4375 404.558594 C 418.4375 404.925781 418.367188 405.277344 418.226562 405.617188 C 418.085938 405.957031 417.886719 406.253906 417.628906 406.511719 C 417.367188 406.773438 417.070312 406.972656 416.730469 407.113281 C 416.390625 407.253906 416.039062 407.324219 415.671875 407.324219 L 292.21875 407.324219 C 291.855469 407.324219 291.5 407.253906 291.164062 407.113281 C 290.824219 406.972656 290.527344 406.773438 290.265625 406.511719 C 290.007812 406.253906 289.808594 405.957031 289.667969 405.617188 C 289.527344 405.277344 289.457031 404.925781 289.457031 404.558594 L 289.457031 400.875 C 289.457031 400.332031 289.511719 399.792969 289.617188 399.257812 C 289.722656 398.722656 289.882812 398.207031 290.089844 397.703125 C 290.296875 397.199219 290.554688 396.722656 290.855469 396.269531 C 291.160156 395.816406 291.503906 395.398438 291.886719 395.015625 C 292.273438 394.628906 292.691406 394.285156 293.144531 393.984375 C 293.597656 393.679688 294.074219 393.425781 294.578125 393.214844 C 295.078125 393.007812 295.597656 392.851562 296.132812 392.742188 C 296.664062 392.636719 297.203125 392.582031 297.75 392.582031 Z M 397.714844 387.054688 L 310.210938 387.054688 C 313.066406 383.917969 315.488281 380.476562 317.488281 376.734375 C 319.484375 372.992188 320.992188 369.0625 322.011719 364.945312 L 385.914062 364.945312 C 386.933594 369.0625 388.441406 372.992188 390.441406 376.734375 C 392.4375 380.476562 394.863281 383.917969 397.714844 387.054688 Z M 466.34375 340.070312 C 466.34375 340.703125 466.3125 341.335938 466.25 341.964844 C 466.1875 342.59375 466.09375 343.222656 465.96875 343.84375 C 465.84375 344.464844 465.691406 345.078125 465.507812 345.683594 C 465.320312 346.289062 465.109375 346.882812 464.867188 347.46875 C 464.625 348.054688 464.351562 348.625 464.054688 349.183594 C 463.753906 349.742188 463.429688 350.285156 463.078125 350.8125 C 462.726562 351.339844 462.347656 351.847656 461.945312 352.335938 C 461.542969 352.828125 461.121094 353.296875 460.671875 353.742188 C 460.222656 354.191406 459.753906 354.617188 459.265625 355.019531 C 458.777344 355.417969 458.265625 355.796875 457.742188 356.148438 C 457.214844 356.5 456.671875 356.828125 456.113281 357.125 C 455.554688 357.425781 454.984375 357.695312 454.398438 357.9375 C 453.8125 358.179688 453.21875 358.394531 452.609375 358.578125 C 452.003906 358.761719 451.390625 358.917969 450.769531 359.039062 C 450.148438 359.164062 449.523438 359.257812 448.894531 359.320312 C 448.261719 359.382812 447.632812 359.414062 446.996094 359.417969 L 260.894531 359.417969 C 260.261719 359.414062 259.632812 359.382812 259 359.320312 C 258.371094 359.257812 257.746094 359.164062 257.125 359.039062 C 256.503906 358.917969 255.890625 358.761719 255.28125 358.578125 C 254.675781 358.394531 254.082031 358.179688 253.496094 357.9375 C 252.910156 357.695312 252.339844 357.425781 251.78125 357.125 C 251.222656 356.828125 250.679688 356.5 250.152344 356.148438 C 249.625 355.796875 249.117188 355.417969 248.628906 355.019531 C 248.140625 354.617188 247.671875 354.191406 247.222656 353.742188 C 246.773438 353.296875 246.351562 352.828125 245.949219 352.335938 C 245.546875 351.847656 245.167969 351.339844 244.816406 350.8125 C 244.464844 350.285156 244.140625 349.742188 243.839844 349.183594 C 243.542969 348.625 243.269531 348.054688 243.027344 347.46875 C 242.785156 346.882812 242.570312 346.289062 242.386719 345.683594 C 242.203125 345.078125 242.050781 344.464844 241.925781 343.84375 C 241.800781 343.222656 241.707031 342.59375 241.644531 341.964844 C 241.582031 341.335938 241.550781 340.703125 241.550781 340.070312 L 241.550781 333.621094 L 466.34375 333.621094 Z M 466.34375 328.09375 L 388.957031 328.09375 L 388.957031 182.527344 L 446.996094 182.527344 C 447.632812 182.527344 448.261719 182.5625 448.894531 182.625 C 449.523438 182.6875 450.148438 182.78125 450.769531 182.902344 C 451.390625 183.027344 452.003906 183.183594 452.609375 183.367188 C 453.21875 183.550781 453.8125 183.765625 454.398438 184.007812 C 454.984375 184.25 455.554688 184.519531 456.113281 184.820312 C 456.671875 185.117188 457.214844 185.445312 457.742188 185.796875 C 458.265625 186.148438 458.777344 186.523438 459.265625 186.925781 C 459.753906 187.328125 460.222656 187.753906 460.671875 188.203125 C 461.121094 188.648438 461.542969 189.117188 461.945312 189.609375 C 462.347656 190.097656 462.726562 190.605469 463.078125 191.132812 C 463.429688 191.660156 463.753906 192.203125 464.054688 192.757812 C 464.351562 193.316406 464.625 193.890625 464.867188 194.476562 C 465.109375 195.058594 465.320312 195.65625 465.507812 196.261719 C 465.691406 196.867188 465.84375 197.480469 465.96875 198.101562 C 466.09375 198.722656 466.1875 199.347656 466.25 199.980469 C 466.3125 200.609375 466.34375 201.242188 466.34375 201.875 Z M 466.34375 328.09375 " fill-opacity="1" fill-rule="nonzero"/></g><path fill="#000000" d="M 357.632812 346.519531 C 357.632812 347.007812 357.539062 347.476562 357.351562 347.929688 C 357.164062 348.378906 356.898438 348.777344 356.554688 349.125 C 356.207031 349.46875 355.808594 349.734375 355.355469 349.921875 C 354.90625 350.109375 354.4375 350.203125 353.945312 350.203125 C 353.457031 350.203125 352.988281 350.109375 352.535156 349.921875 C 352.085938 349.734375 351.6875 349.46875 351.339844 349.125 C 350.996094 348.777344 350.730469 348.378906 350.542969 347.929688 C 350.355469 347.476562 350.261719 347.007812 350.261719 346.519531 C 350.261719 346.03125 350.355469 345.558594 350.542969 345.109375 C 350.730469 344.65625 350.996094 344.257812 351.339844 343.914062 C 351.6875 343.566406 352.085938 343.300781 352.535156 343.113281 C 352.988281 342.925781 353.457031 342.832031 353.945312 342.832031 C 354.4375 342.832031 354.90625 342.925781 355.355469 343.113281 C 355.808594 343.300781 356.207031 343.566406 356.554688 343.914062 C 356.898438 344.257812 357.164062 344.65625 357.351562 345.109375 C 357.539062 345.558594 357.632812 346.03125 357.632812 346.519531 Z M 357.632812 346.519531 " fill-opacity="1" fill-rule="nonzero"/><path fill="#000000" d="M 365.921875 193.582031 L 259.054688 193.582031 C 258.507812 193.585938 257.96875 193.636719 257.4375 193.746094 C 256.902344 193.851562 256.386719 194.007812 255.882812 194.21875 C 255.378906 194.425781 254.902344 194.679688 254.449219 194.984375 C 253.996094 195.285156 253.578125 195.628906 253.191406 196.015625 C 252.808594 196.398438 252.464844 196.820312 252.164062 197.269531 C 251.859375 197.722656 251.605469 198.199219 251.394531 198.703125 C 251.1875 199.207031 251.03125 199.726562 250.921875 200.257812 C 250.816406 200.792969 250.761719 201.332031 250.761719 201.875 L 250.761719 253.46875 C 250.761719 254.011719 250.816406 254.550781 250.921875 255.085938 C 251.03125 255.617188 251.1875 256.136719 251.394531 256.640625 C 251.605469 257.140625 251.859375 257.621094 252.164062 258.074219 C 252.464844 258.523438 252.808594 258.945312 253.191406 259.328125 C 253.578125 259.714844 253.996094 260.058594 254.449219 260.359375 C 254.902344 260.660156 255.378906 260.917969 255.882812 261.125 C 256.386719 261.335938 256.902344 261.492188 257.4375 261.597656 C 257.96875 261.707031 258.507812 261.757812 259.054688 261.757812 L 365.921875 261.757812 C 366.46875 261.757812 367.007812 261.707031 367.539062 261.597656 C 368.074219 261.492188 368.59375 261.335938 369.09375 261.125 C 369.597656 260.917969 370.074219 260.660156 370.527344 260.359375 C 370.980469 260.058594 371.398438 259.714844 371.785156 259.328125 C 372.167969 258.945312 372.511719 258.523438 372.816406 258.074219 C 373.117188 257.621094 373.375 257.140625 373.582031 256.640625 C 373.789062 256.136719 373.949219 255.617188 374.054688 255.085938 C 374.160156 254.550781 374.214844 254.011719 374.214844 253.46875 L 374.214844 201.875 C 374.214844 201.332031 374.160156 200.792969 374.054688 200.257812 C 373.949219 199.726562 373.789062 199.207031 373.582031 198.703125 C 373.375 198.199219 373.117188 197.722656 372.816406 197.269531 C 372.511719 196.820312 372.167969 196.398438 371.785156 196.015625 C 371.398438 195.628906 370.980469 195.285156 370.527344 194.984375 C 370.074219 194.679688 369.597656 194.425781 369.09375 194.21875 C 368.59375 194.007812 368.074219 193.851562 367.539062 193.746094 C 367.007812 193.636719 366.46875 193.585938 365.921875 193.582031 Z M 368.6875 253.46875 C 368.6875 253.835938 368.617188 254.1875 368.476562 254.523438 C 368.335938 254.863281 368.136719 255.164062 367.878906 255.421875 C 367.617188 255.679688 367.320312 255.878906 366.980469 256.019531 C 366.644531 256.160156 366.289062 256.230469 365.921875 256.230469 L 259.054688 256.230469 C 258.6875 256.230469 258.335938 256.160156 257.996094 256.019531 C 257.65625 255.878906 257.359375 255.679688 257.101562 255.421875 C 256.839844 255.164062 256.640625 254.863281 256.5 254.523438 C 256.359375 254.1875 256.289062 253.835938 256.289062 253.46875 L 256.289062 201.875 C 256.289062 201.507812 256.359375 201.15625 256.5 200.816406 C 256.640625 200.480469 256.839844 200.179688 257.101562 199.921875 C 257.359375 199.664062 257.65625 199.464844 257.996094 199.324219 C 258.335938 199.183594 258.6875 199.113281 259.054688 199.113281 L 365.921875 199.113281 C 366.289062 199.113281 366.644531 199.183594 366.980469 199.324219 C 367.320312 199.464844 367.617188 199.664062 367.878906 199.921875 C 368.136719 200.179688 368.335938 200.480469 368.476562 200.816406 C 368.617188 201.15625 368.6875 201.507812 368.6875 201.875 Z M 368.6875 253.46875 " fill-opacity="1" fill-rule="nonzero"/><path fill="#000000" d="M 299.589844 270.972656 L 259.054688 270.972656 C 258.507812 270.972656 257.96875 271.027344 257.4375 271.132812 C 256.902344 271.238281 256.386719 271.398438 255.882812 271.605469 C 255.378906 271.8125 254.902344 272.070312 254.449219 272.371094 C 253.996094 272.675781 253.578125 273.019531 253.191406 273.402344 C 252.808594 273.789062 252.464844 274.207031 252.164062 274.660156 C 251.859375 275.113281 251.605469 275.589844 251.394531 276.09375 C 251.1875 276.59375 251.03125 277.113281 250.921875 277.648438 C 250.816406 278.179688 250.761719 278.71875 250.761719 279.265625 L 250.761719 308.746094 C 250.761719 309.289062 250.816406 309.828125 250.921875 310.363281 C 251.03125 310.894531 251.1875 311.414062 251.394531 311.917969 C 251.605469 312.417969 251.859375 312.898438 252.164062 313.351562 C 252.464844 313.800781 252.808594 314.222656 253.191406 314.605469 C 253.578125 314.992188 253.996094 315.335938 254.449219 315.636719 C 254.902344 315.9375 255.378906 316.195312 255.882812 316.402344 C 256.386719 316.613281 256.902344 316.769531 257.4375 316.875 C 257.96875 316.984375 258.507812 317.035156 259.054688 317.035156 L 299.589844 317.035156 C 300.136719 317.035156 300.675781 316.984375 301.207031 316.875 C 301.742188 316.769531 302.257812 316.613281 302.761719 316.402344 C 303.265625 316.195312 303.742188 315.9375 304.195312 315.636719 C 304.648438 315.335938 305.066406 314.992188 305.453125 314.605469 C 305.835938 314.222656 306.179688 313.800781 306.480469 313.351562 C 306.785156 312.898438 307.039062 312.417969 307.25 311.917969 C 307.457031 311.414062 307.613281 310.894531 307.722656 310.363281 C 307.828125 309.828125 307.882812 309.289062 307.882812 308.746094 L 307.882812 279.265625 C 307.882812 278.71875 307.828125 278.179688 307.722656 277.648438 C 307.613281 277.113281 307.457031 276.59375 307.25 276.09375 C 307.039062 275.589844 306.785156 275.113281 306.480469 274.660156 C 306.179688 274.207031 305.835938 273.789062 305.453125 273.402344 C 305.066406 273.019531 304.648438 272.675781 304.195312 272.371094 C 303.742188 272.070312 303.265625 271.8125 302.761719 271.605469 C 302.257812 271.398438 301.742188 271.238281 301.207031 271.132812 C 300.675781 271.027344 300.136719 270.972656 299.589844 270.972656 Z M 302.355469 308.746094 C 302.355469 309.113281 302.285156 309.464844 302.144531 309.800781 C 302.003906 310.140625 301.804688 310.441406 301.542969 310.699219 C 301.285156 310.957031 300.988281 311.15625 300.648438 311.296875 C 300.308594 311.4375 299.957031 311.507812 299.589844 311.507812 L 259.054688 311.507812 C 258.6875 311.507812 258.335938 311.4375 257.996094 311.296875 C 257.65625 311.15625 257.359375 310.957031 257.101562 310.699219 C 256.839844 310.441406 256.640625 310.140625 256.5 309.800781 C 256.359375 309.464844 256.289062 309.113281 256.289062 308.746094 L 256.289062 279.265625 C 256.289062 278.898438 256.359375 278.546875 256.5 278.207031 C 256.640625 277.867188 256.839844 277.570312 257.101562 277.308594 C 257.359375 277.050781 257.65625 276.851562 257.996094 276.710938 C 258.335938 276.570312 258.6875 276.5 259.054688 276.5 L 299.589844 276.5 C 299.957031 276.5 300.308594 276.570312 300.648438 276.710938 C 300.988281 276.851562 301.285156 277.050781 301.542969 277.308594 C 301.804688 277.570312 302.003906 277.867188 302.144531 278.207031 C 302.285156 278.546875 302.355469 278.898438 302.355469 279.265625 Z M 302.355469 308.746094 " fill-opacity="1" fill-rule="nonzero"/><path fill="#000000" d="M 365.921875 270.972656 L 325.386719 270.972656 C 324.84375 270.972656 324.304688 271.027344 323.769531 271.132812 C 323.234375 271.238281 322.71875 271.398438 322.214844 271.605469 C 321.710938 271.8125 321.234375 272.070312 320.78125 272.371094 C 320.328125 272.675781 319.910156 273.019531 319.527344 273.402344 C 319.140625 273.789062 318.796875 274.207031 318.496094 274.660156 C 318.191406 275.113281 317.9375 275.589844 317.730469 276.09375 C 317.519531 276.59375 317.363281 277.113281 317.257812 277.648438 C 317.148438 278.179688 317.097656 278.71875 317.09375 279.265625 L 317.09375 308.746094 C 317.097656 309.289062 317.148438 309.828125 317.257812 310.363281 C 317.363281 310.894531 317.519531 311.414062 317.730469 311.917969 C 317.9375 312.417969 318.191406 312.898438 318.496094 313.351562 C 318.796875 313.800781 319.140625 314.222656 319.527344 314.605469 C 319.910156 314.992188 320.328125 315.335938 320.78125 315.636719 C 321.234375 315.9375 321.710938 316.195312 322.214844 316.402344 C 322.71875 316.613281 323.234375 316.769531 323.769531 316.875 C 324.304688 316.984375 324.84375 317.035156 325.386719 317.035156 L 365.921875 317.035156 C 366.46875 317.035156 367.007812 316.984375 367.539062 316.875 C 368.074219 316.769531 368.59375 316.613281 369.09375 316.402344 C 369.597656 316.195312 370.074219 315.9375 370.527344 315.636719 C 370.980469 315.335938 371.398438 314.992188 371.785156 314.605469 C 372.167969 314.222656 372.511719 313.800781 372.816406 313.351562 C 373.117188 312.898438 373.375 312.417969 373.582031 311.917969 C 373.789062 311.414062 373.949219 310.894531 374.054688 310.363281 C 374.160156 309.828125 374.214844 309.289062 374.214844 308.746094 L 374.214844 279.265625 C 374.214844 278.71875 374.160156 278.179688 374.054688 277.648438 C 373.949219 277.113281 373.789062 276.59375 373.582031 276.09375 C 373.375 275.589844 373.117188 275.113281 372.816406 274.660156 C 372.511719 274.207031 372.167969 273.789062 371.785156 273.402344 C 371.398438 273.019531 370.980469 272.675781 370.527344 272.371094 C 370.074219 272.070312 369.597656 271.8125 369.09375 271.605469 C 368.59375 271.398438 368.074219 271.238281 367.539062 271.132812 C 367.007812 271.027344 366.46875 270.972656 365.921875 270.972656 Z M 368.6875 308.746094 C 368.6875 309.113281 368.617188 309.464844 368.476562 309.800781 C 368.335938 310.140625 368.136719 310.441406 367.878906 310.699219 C 367.617188 310.957031 367.320312 311.15625 366.980469 311.296875 C 366.644531 311.4375 366.289062 311.507812 365.921875 311.507812 L 325.386719 311.507812 C 325.019531 311.507812 324.667969 311.4375 324.328125 311.296875 C 323.992188 311.15625 323.691406 310.957031 323.433594 310.699219 C 323.175781 310.441406 322.972656 310.140625 322.835938 309.800781 C 322.695312 309.464844 322.625 309.113281 322.621094 308.746094 L 322.621094 279.265625 C 322.625 278.898438 322.695312 278.546875 322.835938 278.207031 C 322.972656 277.867188 323.175781 277.570312 323.433594 277.308594 C 323.691406 277.050781 323.992188 276.851562 324.328125 276.710938 C 324.667969 276.570312 325.019531 276.5 325.386719 276.5 L 365.921875 276.5 C 366.289062 276.5 366.644531 276.570312 366.980469 276.710938 C 367.320312 276.851562 367.617188 277.050781 367.878906 277.308594 C 368.136719 277.570312 368.335938 277.867188 368.476562 278.207031 C 368.617188 278.546875 368.6875 278.898438 368.6875 279.265625 Z M 368.6875 308.746094 " fill-opacity="1" fill-rule="nonzero"/><path fill="#000000" d="M 450.683594 311.507812 L 404.617188 311.507812 C 404.25 311.507812 403.898438 311.578125 403.558594 311.71875 C 403.222656 311.859375 402.921875 312.058594 402.664062 312.320312 C 402.40625 312.578125 402.203125 312.875 402.066406 313.214844 C 401.925781 313.554688 401.855469 313.90625 401.855469 314.273438 C 401.855469 314.640625 401.925781 314.992188 402.066406 315.332031 C 402.203125 315.667969 402.40625 315.96875 402.664062 316.226562 C 402.921875 316.488281 403.222656 316.6875 403.558594 316.828125 C 403.898438 316.96875 404.25 317.035156 404.617188 317.035156 L 450.683594 317.035156 C 451.050781 317.035156 451.402344 316.96875 451.742188 316.828125 C 452.078125 316.6875 452.378906 316.488281 452.636719 316.226562 C 452.894531 315.96875 453.097656 315.667969 453.234375 315.332031 C 453.375 314.992188 453.445312 314.640625 453.445312 314.273438 C 453.445312 313.90625 453.375 313.554688 453.234375 313.214844 C 453.097656 312.875 452.894531 312.578125 452.636719 312.320312 C 452.378906 312.058594 452.078125 311.859375 451.742188 311.71875 C 451.402344 311.578125 451.050781 311.507812 450.683594 311.507812 Z M 450.683594 311.507812 " fill-opacity="1" fill-rule="nonzero"/><path fill="#000000" d="M 450.683594 293.082031 L 404.617188 293.082031 C 404.25 293.082031 403.898438 293.152344 403.558594 293.292969 C 403.222656 293.433594 402.921875 293.632812 402.664062 293.894531 C 402.40625 294.152344 402.203125 294.449219 402.066406 294.789062 C 401.925781 295.128906 401.855469 295.480469 401.855469 295.847656 C 401.855469 296.214844 401.925781 296.566406 402.066406 296.90625 C 402.203125 297.242188 402.40625 297.542969 402.664062 297.800781 C 402.921875 298.0625 403.222656 298.261719 403.558594 298.402344 C 403.898438 298.539062 404.25 298.609375 404.617188 298.609375 L 450.683594 298.609375 C 451.050781 298.609375 451.402344 298.539062 451.742188 298.402344 C 452.078125 298.261719 452.378906 298.0625 452.636719 297.800781 C 452.894531 297.542969 453.097656 297.242188 453.234375 296.90625 C 453.375 296.566406 453.445312 296.214844 453.445312 295.847656 C 453.445312 295.480469 453.375 295.128906 453.234375 294.789062 C 453.097656 294.449219 452.894531 294.152344 452.636719 293.894531 C 452.378906 293.632812 452.078125 293.433594 451.742188 293.292969 C 451.402344 293.152344 451.050781 293.082031 450.683594 293.082031 Z M 450.683594 293.082031 " fill-opacity="1" fill-rule="nonzero"/><path fill="#000000" d="M 450.683594 274.65625 L 404.617188 274.65625 C 404.25 274.65625 403.898438 274.726562 403.558594 274.867188 C 403.222656 275.007812 402.921875 275.207031 402.664062 275.46875 C 402.40625 275.726562 402.203125 276.023438 402.066406 276.363281 C 401.925781 276.703125 401.855469 277.054688 401.855469 277.421875 C 401.855469 277.789062 401.925781 278.140625 402.066406 278.480469 C 402.203125 278.816406 402.40625 279.117188 402.664062 279.375 C 402.921875 279.636719 403.222656 279.835938 403.558594 279.976562 C 403.898438 280.113281 404.25 280.183594 404.617188 280.183594 L 450.683594 280.183594 C 451.050781 280.183594 451.402344 280.113281 451.742188 279.976562 C 452.078125 279.835938 452.378906 279.636719 452.636719 279.375 C 452.894531 279.117188 453.097656 278.816406 453.234375 278.480469 C 453.375 278.140625 453.445312 277.789062 453.445312 277.421875 C 453.445312 277.054688 453.375 276.703125 453.234375 276.363281 C 453.097656 276.023438 452.894531 275.726562 452.636719 275.46875 C 452.378906 275.207031 452.078125 275.007812 451.742188 274.867188 C 451.402344 274.726562 451.050781 274.65625 450.683594 274.65625 Z M 450.683594 274.65625 " fill-opacity="1" fill-rule="nonzero"/><path fill="#000000" d="M 450.683594 256.230469 L 404.617188 256.230469 C 404.25 256.230469 403.898438 256.300781 403.558594 256.441406 C 403.222656 256.582031 402.921875 256.78125 402.664062 257.042969 C 402.40625 257.300781 402.203125 257.597656 402.066406 257.9375 C 401.925781 258.277344 401.855469 258.628906 401.855469 258.996094 C 401.855469 259.363281 401.925781 259.714844 402.066406 260.054688 C 402.203125 260.390625 402.40625 260.691406 402.664062 260.949219 C 402.921875 261.210938 403.222656 261.410156 403.558594 261.550781 C 403.898438 261.6875 404.25 261.757812 404.617188 261.757812 L 450.683594 261.757812 C 451.050781 261.757812 451.402344 261.6875 451.742188 261.550781 C 452.078125 261.410156 452.378906 261.210938 452.636719 260.949219 C 452.894531 260.691406 453.097656 260.390625 453.234375 260.054688 C 453.375 259.714844 453.445312 259.363281 453.445312 258.996094 C 453.445312 258.628906 453.375 258.277344 453.234375 257.9375 C 453.097656 257.597656 452.894531 257.300781 452.636719 257.042969 C 452.378906 256.78125 452.078125 256.582031 451.742188 256.441406 C 451.402344 256.300781 451.050781 256.230469 450.683594 256.230469 Z M 450.683594 256.230469 " fill-opacity="1" fill-rule="nonzero"/><path fill="#000000" d="M 422.078125 238.574219 C 422.421875 238.691406 422.777344 238.742188 423.144531 238.722656 C 423.511719 238.699219 423.859375 238.609375 424.1875 238.453125 C 424.519531 238.292969 424.804688 238.078125 425.050781 237.804688 C 425.292969 237.53125 425.476562 237.222656 425.597656 236.875 L 434.628906 211.078125 C 434.75 210.734375 434.796875 210.378906 434.777344 210.011719 C 434.757812 209.644531 434.667969 209.296875 434.507812 208.96875 C 434.351562 208.636719 434.132812 208.351562 433.859375 208.105469 C 433.585938 207.863281 433.277344 207.679688 432.929688 207.558594 C 432.585938 207.4375 432.230469 207.386719 431.863281 207.40625 C 431.496094 207.425781 431.148438 207.515625 430.820312 207.675781 C 430.488281 207.835938 430.203125 208.050781 429.957031 208.324219 C 429.710938 208.597656 429.53125 208.90625 429.410156 209.253906 L 420.378906 235.050781 C 420.257812 235.394531 420.210938 235.753906 420.230469 236.117188 C 420.25 236.484375 420.339844 236.832031 420.5 237.164062 C 420.65625 237.492188 420.875 237.78125 421.148438 238.023438 C 421.421875 238.269531 421.730469 238.453125 422.078125 238.574219 Z M 422.078125 238.574219 " fill-opacity="1" fill-rule="nonzero"/><path fill="#000000" d="M 413.542969 238.160156 C 413.835938 237.941406 414.074219 237.671875 414.257812 237.355469 C 414.441406 237.039062 414.558594 236.695312 414.609375 236.335938 C 414.65625 235.972656 414.632812 235.613281 414.542969 235.257812 C 414.449219 234.902344 414.289062 234.582031 414.066406 234.289062 L 405.519531 223.066406 L 414.066406 211.839844 C 414.289062 211.550781 414.445312 211.226562 414.539062 210.875 C 414.628906 210.519531 414.652344 210.160156 414.601562 209.796875 C 414.550781 209.4375 414.433594 209.097656 414.25 208.78125 C 414.066406 208.464844 413.828125 208.195312 413.539062 207.976562 C 413.246094 207.753906 412.925781 207.597656 412.570312 207.503906 C 412.21875 207.410156 411.859375 207.386719 411.496094 207.433594 C 411.132812 207.484375 410.796875 207.597656 410.476562 207.78125 C 410.160156 207.964844 409.890625 208.203125 409.671875 208.492188 L 399.847656 221.390625 C 399.664062 221.632812 399.523438 221.894531 399.429688 222.179688 C 399.332031 222.46875 399.285156 222.761719 399.285156 223.066406 C 399.285156 223.367188 399.332031 223.664062 399.429688 223.949219 C 399.523438 224.234375 399.664062 224.5 399.847656 224.738281 L 409.671875 237.636719 C 409.890625 237.929688 410.160156 238.167969 410.476562 238.351562 C 410.792969 238.535156 411.136719 238.652344 411.496094 238.703125 C 411.859375 238.75 412.21875 238.730469 412.574219 238.636719 C 412.929688 238.542969 413.25 238.382812 413.542969 238.160156 Z M 413.542969 238.160156 " fill-opacity="1" fill-rule="nonzero"/><path fill="#000000" d="M 445.597656 208.488281 C 445.375 208.199219 445.105469 207.960938 444.789062 207.777344 C 444.472656 207.59375 444.132812 207.476562 443.769531 207.425781 C 443.40625 207.378906 443.046875 207.402344 442.691406 207.496094 C 442.339844 207.589844 442.015625 207.75 441.722656 207.972656 C 441.433594 208.195312 441.195312 208.464844 441.011719 208.78125 C 440.828125 209.097656 440.710938 209.4375 440.664062 209.800781 C 440.613281 210.164062 440.636719 210.523438 440.730469 210.878906 C 440.824219 211.230469 440.984375 211.554688 441.207031 211.84375 L 449.777344 223.066406 L 441.207031 234.285156 C 440.984375 234.578125 440.828125 234.898438 440.734375 235.253906 C 440.636719 235.609375 440.617188 235.964844 440.664062 236.328125 C 440.710938 236.691406 440.828125 237.03125 441.011719 237.351562 C 441.195312 237.667969 441.433594 237.9375 441.726562 238.160156 C 442.015625 238.382812 442.339844 238.539062 442.695312 238.632812 C 443.046875 238.730469 443.40625 238.75 443.769531 238.703125 C 444.132812 238.652344 444.472656 238.539062 444.789062 238.355469 C 445.109375 238.171875 445.378906 237.933594 445.601562 237.640625 L 455.449219 224.742188 C 455.636719 224.503906 455.777344 224.238281 455.871094 223.949219 C 455.96875 223.664062 456.019531 223.367188 456.019531 223.066406 C 456.019531 222.761719 455.96875 222.464844 455.871094 222.179688 C 455.777344 221.890625 455.636719 221.628906 455.449219 221.386719 Z M 445.597656 208.488281 " fill-opacity="1" fill-rule="nonzero"/></svg>