<svg xmlns="http://www.w3.org/2000/svg" xmlns:xlink="http://www.w3.org/1999/xlink" width="940" zoomAndPan="magnify" viewBox="0 0 705 591.000005" height="788" preserveAspectRatio="xMidYMid meet" version="1.0"><defs><g/><clipPath id="id1"><path d="M 62.640625 0 L 646 0 L 646 583.359375 L 62.640625 583.359375 Z M 62.640625 0 " clip-rule="nonzero"/></clipPath><clipPath id="id2"><path d="M 152.914062 91.066406 L 555.078125 91.066406 L 555.078125 493.230469 L 152.914062 493.230469 Z M 152.914062 91.066406 " clip-rule="nonzero"/></clipPath><clipPath id="id3"><path d="M 230.085938 373 L 449 373 L 449 393 L 230.085938 393 Z M 230.085938 373 " clip-rule="nonzero"/></clipPath><clipPath id="id4"><path d="M 301 421.429688 L 377.699219 421.429688 L 377.699219 426.859375 L 301 426.859375 Z M 301 421.429688 " clip-rule="nonzero"/></clipPath><clipPath id="id5"><path d="M 422 157.277344 L 445 157.277344 L 445 206 L 422 206 Z M 422 157.277344 " clip-rule="nonzero"/></clipPath><clipPath id="id6"><path d="M 436.710938 281.707031 L 477.519531 281.707031 L 477.519531 312.816406 L 436.710938 312.816406 Z M 436.710938 281.707031 " clip-rule="nonzero"/></clipPath><clipPath id="id7"><path d="M 230.085938 231 L 449 231 L 449 368 L 230.085938 368 Z M 230.085938 231 " clip-rule="nonzero"/></clipPath></defs><g clip-path="url(#id1)"><path fill="#66b1f1" d="M 62.640625 0.00390625 L 646 0.00390625 L 646 583.359375 L 62.640625 583.359375 L 62.640625 0.00390625 " fill-opacity="1" fill-rule="nonzero"/></g><g clip-path="url(#id2)"><path fill="#666565" d="M 353.996094 91.066406 C 242.941406 91.066406 152.914062 181.09375 152.914062 292.148438 C 152.914062 403.203125 242.941406 493.230469 353.996094 493.230469 C 465.050781 493.230469 555.078125 403.203125 555.078125 292.148438 C 555.078125 181.09375 465.050781 91.066406 353.996094 91.066406 " fill-opacity="1" fill-rule="nonzero"/></g><g clip-path="url(#id3)"><path fill="#100f0d" d="M 430.410156 378.234375 C 432.4375 378.234375 434.082031 379.878906 434.082031 381.90625 C 434.082031 383.9375 432.4375 385.578125 430.410156 385.578125 C 428.382812 385.578125 426.738281 383.9375 426.738281 381.90625 C 426.738281 379.878906 428.382812 378.234375 430.410156 378.234375 Z M 230.160156 381.222656 C 230.160156 387.664062 235.757812 392.902344 242.628906 392.902344 L 436.070312 392.902344 C 442.945312 392.902344 448.539062 387.664062 448.539062 381.222656 L 448.539062 373.132812 L 230.160156 373.132812 L 230.160156 381.222656 " fill-opacity="1" fill-rule="nonzero"/></g><path fill="#100f0d" d="M 367.492188 295.28125 L 366.011719 294.039062 C 362.914062 291.441406 359.375 289.585938 355.5 288.519531 L 353.5 287.96875 L 353.5 278.238281 L 341.261719 278.238281 L 341.261719 288.289062 L 339.390625 288.898438 C 335.785156 290.078125 332.507812 291.957031 329.640625 294.472656 L 328.148438 295.785156 L 326.378906 294.714844 C 326.425781 295.5 326.453125 296.289062 326.453125 297.078125 C 326.453125 299.429688 326.238281 301.78125 325.816406 304.085938 L 329.152344 306.09375 C 332.613281 299.132812 339.796875 294.335938 348.082031 294.335938 C 359.730469 294.335938 369.207031 303.820312 369.207031 315.476562 C 369.207031 327.132812 359.730469 336.617188 348.082031 336.617188 C 338.628906 336.617188 330.605469 330.375 327.914062 321.789062 L 327.914062 321.800781 L 321.710938 332.101562 L 314.003906 327.457031 L 313.144531 327.972656 L 319.453125 338.472656 L 326.996094 333.9375 L 328.492188 335.410156 C 331.5625 338.425781 335.328125 340.722656 339.390625 342.050781 L 341.261719 342.664062 L 341.261719 350.8125 L 353.5 350.8125 L 353.5 342.984375 L 355.5 342.4375 C 359.824219 341.246094 363.855469 338.988281 367.152344 335.898438 L 368.648438 334.5 L 375.285156 338.5 L 381.601562 328.003906 L 374.800781 323.902344 L 375.257812 321.972656 C 375.761719 319.855469 376.015625 317.664062 376.015625 315.476562 C 376.015625 312.769531 375.628906 310.089844 374.867188 307.511719 L 374.265625 305.496094 L 381.613281 301.078125 L 375.304688 290.582031 L 367.492188 295.28125 " fill-opacity="1" fill-rule="nonzero"/><path fill="#100f0d" d="M 287.878906 290.300781 C 284.144531 290.300781 281.105469 293.34375 281.105469 297.078125 C 281.105469 300.8125 284.144531 303.855469 287.878906 303.855469 C 291.613281 303.855469 294.648438 300.8125 294.648438 297.078125 C 294.648438 293.34375 291.613281 290.300781 287.878906 290.300781 " fill-opacity="1" fill-rule="nonzero"/><path fill="#100f0d" d="M 287.878906 309.289062 C 281.148438 309.289062 275.675781 303.8125 275.675781 297.078125 C 275.675781 290.34375 281.148438 284.867188 287.878906 284.867188 C 294.605469 284.867188 300.078125 290.34375 300.078125 297.078125 C 300.078125 303.8125 294.605469 309.289062 287.878906 309.289062 Z M 287.878906 278.238281 C 277.496094 278.238281 269.050781 286.691406 269.050781 297.078125 C 269.050781 307.464844 277.496094 315.914062 287.878906 315.914062 C 296.214844 315.914062 303.300781 310.464844 305.773438 302.941406 L 305.703125 302.898438 L 305.875 302.617188 C 306.414062 300.867188 306.703125 299.003906 306.703125 297.078125 C 306.703125 286.691406 298.257812 278.238281 287.878906 278.238281 " fill-opacity="1" fill-rule="nonzero"/><path fill="#100f0d" d="M 310.515625 305.796875 C 307.011719 314.886719 298.1875 321.351562 287.878906 321.351562 C 274.5 321.351562 263.617188 310.464844 263.617188 297.078125 C 263.617188 283.695312 274.5 272.808594 287.878906 272.808594 C 299.808594 272.808594 309.753906 281.46875 311.765625 292.832031 C 312.011719 294.214844 312.136719 295.632812 312.136719 297.078125 C 312.136719 300.152344 311.5625 303.089844 310.515625 305.796875 Z M 319.273438 324.289062 L 319.863281 324.648438 L 320.53125 323.527344 L 321.042969 322.683594 L 327.152344 312.542969 L 327.152344 312.535156 L 327.164062 312.523438 C 327.21875 312.132812 327.28125 311.742188 327.359375 311.355469 L 327.355469 311.355469 L 321.242188 307.675781 L 319.660156 306.722656 L 320.027344 305.1875 L 320.121094 304.785156 C 320.722656 302.269531 321.027344 299.675781 321.027344 297.078125 C 321.027344 295.089844 320.847656 293.117188 320.5 291.171875 C 320.285156 289.980469 320.003906 288.792969 319.65625 287.632812 L 319.0625 285.613281 L 320.433594 284.792969 L 327.746094 280.390625 L 319.886719 267.320312 L 310.628906 272.886719 L 309.148438 271.640625 C 305.472656 268.5625 301.277344 266.359375 296.675781 265.09375 L 294.679688 264.546875 L 294.679688 253.050781 L 279.4375 253.050781 L 279.4375 264.9375 L 277.566406 265.546875 C 273.289062 266.949219 269.398438 269.175781 266.007812 272.160156 L 264.515625 273.472656 L 254.253906 267.285156 L 246.390625 280.351562 L 256.421875 286.398438 L 255.882812 288.382812 C 255.121094 291.207031 254.730469 294.136719 254.730469 297.078125 C 254.730469 299.386719 254.972656 301.703125 255.445312 303.953125 L 255.839844 305.84375 L 246.371094 311.542969 L 254.230469 324.613281 L 263.144531 319.253906 L 264.640625 320.730469 C 268.277344 324.304688 272.746094 327.03125 277.566406 328.605469 L 279.4375 329.21875 L 279.4375 338.882812 L 294.679688 338.882812 L 294.679688 329.613281 L 296.675781 329.066406 C 301.808594 327.652344 306.59375 324.972656 310.503906 321.308594 L 312.003906 319.914062 L 314.007812 321.121094 L 319.273438 324.289062 " fill-opacity="1" fill-rule="nonzero"/><path fill="#100f0d" d="M 445.746094 254.214844 C 438.703125 259.339844 437.277344 265.949219 436.5625 271.1875 L 436.5625 275.070312 C 437.109375 275.164062 437.671875 275.269531 438.257812 275.378906 C 441.179688 275.933594 444.695312 276.605469 448.542969 276.1875 C 450.289062 276 452.109375 275.585938 453.96875 274.832031 C 455.550781 274.199219 457.15625 273.324219 458.785156 272.140625 C 467.792969 265.574219 475.019531 251.164062 476.625 245.421875 C 472.242188 245.253906 462.429688 246.542969 453.96875 249.867188 C 452.066406 250.609375 450.234375 251.464844 448.542969 252.425781 C 447.554688 252.984375 446.617188 253.578125 445.746094 254.214844 " fill-opacity="1" fill-rule="nonzero"/><g clip-path="url(#id4)"><path fill="#100f0d" d="M 301.171875 421.953125 L 301.171875 426.863281 L 377.527344 426.863281 L 377.527344 421.953125 L 301.171875 421.953125 " fill-opacity="1" fill-rule="nonzero"/></g><path fill="#100f0d" d="M 448.542969 246.292969 L 448.542969 243.308594 C 448.542969 242.914062 448.519531 242.519531 448.476562 242.132812 C 447.566406 242.21875 446.675781 242.253906 445.8125 242.253906 C 442.386719 242.253906 439.367188 241.675781 437.011719 241.234375 C 436.859375 241.210938 436.710938 241.175781 436.5625 241.152344 L 436.5625 255.742188 C 438.078125 253.671875 440.023438 251.664062 442.546875 249.824219 C 444.378906 248.492188 446.40625 247.320312 448.542969 246.292969 " fill-opacity="1" fill-rule="nonzero"/><path fill="#100f0d" d="M 436.5625 231.640625 L 436.5625 235.625 C 437.035156 235.703125 437.523438 235.800781 438.023438 235.894531 C 440.46875 236.359375 443.320312 236.902344 446.433594 236.824219 C 448.277344 236.78125 450.210938 236.515625 452.203125 235.894531 C 454.269531 235.25 456.398438 234.222656 458.554688 232.652344 C 467.566406 226.089844 474.789062 211.679688 476.398438 205.9375 C 470.441406 205.710938 454.523438 208.164062 445.511719 214.730469 C 440.765625 218.191406 438.574219 222.316406 437.425781 226.246094 C 437.035156 227.578125 436.769531 228.886719 436.5625 230.136719 L 436.5625 231.640625 " fill-opacity="1" fill-rule="nonzero"/><g clip-path="url(#id5)"><path fill="#100f0d" d="M 432.238281 205.953125 L 435.464844 205.953125 C 439.457031 202.195312 444.929688 197.050781 444.929688 187.4375 C 444.929688 176.28125 437.539062 161.960938 433.847656 157.277344 C 430.160156 161.960938 422.773438 176.28125 422.773438 187.4375 C 422.773438 197.050781 428.242188 202.195312 432.238281 205.953125 " fill-opacity="1" fill-rule="nonzero"/></g><path fill="#100f0d" d="M 405.597656 231.628906 C 406.03125 231.988281 406.46875 232.332031 406.910156 232.652344 C 414.683594 238.3125 422.054688 236.917969 427.445312 235.894531 C 428.207031 235.746094 428.945312 235.609375 429.640625 235.5 C 429.53125 234.808594 429.4375 234.058594 429.339844 233.285156 C 429.273438 232.75 429.203125 232.199219 429.125 231.628906 C 428.894531 229.933594 428.582031 228.085938 428.023438 226.199219 C 426.878906 222.28125 424.683594 218.171875 419.957031 214.730469 C 411.308594 208.4375 396.320312 205.921875 389.847656 205.921875 C 389.574219 205.921875 389.308594 205.925781 389.066406 205.9375 C 390.257812 210.179688 394.511719 219.152344 400.285156 226.199219 C 401.945312 228.222656 403.726562 230.085938 405.597656 231.628906 " fill-opacity="1" fill-rule="nonzero"/><path fill="#100f0d" d="M 320.367188 398.335938 L 316.453125 416.519531 L 362.242188 416.519531 L 358.332031 398.335938 L 320.367188 398.335938 " fill-opacity="1" fill-rule="nonzero"/><path fill="#100f0d" d="M 421.070312 290.632812 C 412.058594 284.066406 396.136719 281.613281 390.183594 281.839844 C 391.796875 287.582031 399.015625 301.988281 408.027344 308.554688 C 415.796875 314.214844 423.171875 312.820312 428.558594 311.796875 C 429.328125 311.652344 430.066406 311.511719 430.757812 311.40625 C 430.648438 310.710938 430.554688 309.96875 430.457031 309.191406 C 429.773438 303.746094 428.839844 296.292969 421.070312 290.632812 " fill-opacity="1" fill-rule="nonzero"/><path fill="#100f0d" d="M 420.640625 345.515625 L 446.375 345.515625 L 448.542969 331.308594 L 448.542969 330.074219 L 418.28125 330.074219 L 420.640625 345.515625 " fill-opacity="1" fill-rule="nonzero"/><path fill="#100f0d" d="M 429.871094 274.988281 C 429.761719 274.292969 429.667969 273.546875 429.570312 272.773438 C 428.890625 267.328125 427.953125 259.875 420.183594 254.214844 C 411.171875 247.648438 395.257812 245.199219 389.296875 245.425781 C 390.910156 251.164062 398.128906 265.574219 407.144531 272.140625 C 414.910156 277.796875 422.285156 276.402344 427.671875 275.378906 C 428.441406 275.234375 429.179688 275.097656 429.871094 274.988281 " fill-opacity="1" fill-rule="nonzero"/><path fill="#100f0d" d="M 438.128906 317.136719 C 437.566406 317.035156 437.039062 316.933594 436.5625 316.851562 L 436.5625 324.800781 L 448.542969 324.800781 L 448.542969 318.109375 C 447.992188 318.140625 447.457031 318.15625 446.929688 318.15625 C 443.507812 318.15625 440.484375 317.582031 438.128906 317.136719 " fill-opacity="1" fill-rule="nonzero"/><path fill="#100f0d" d="M 332.382812 315.476562 C 332.382812 324.136719 339.421875 331.183594 348.082031 331.183594 C 356.738281 331.183594 363.777344 324.136719 363.777344 315.476562 C 363.777344 306.8125 356.738281 299.769531 348.082031 299.769531 C 341.765625 299.769531 336.3125 303.519531 333.824219 308.914062 L 335.179688 309.730469 L 332.429688 314.296875 C 332.402344 314.683594 332.382812 315.078125 332.382812 315.476562 " fill-opacity="1" fill-rule="nonzero"/><g clip-path="url(#id6)"><path fill="#100f0d" d="M 453.96875 286.640625 C 452.046875 287.4375 450.210938 288.34375 448.542969 289.363281 C 447.871094 289.769531 447.234375 290.191406 446.628906 290.632812 C 442.746094 293.464844 440.570312 296.746094 439.277344 299.992188 C 437.988281 303.246094 437.585938 306.46875 437.246094 309.1875 C 437.144531 309.96875 437.050781 310.710938 436.945312 311.402344 C 437.632812 311.511719 438.371094 311.65625 439.140625 311.796875 C 441.839844 312.308594 445.042969 312.917969 448.542969 312.683594 C 450.285156 312.566406 452.105469 312.242188 453.96875 311.585938 C 455.828125 310.9375 457.734375 309.960938 459.671875 308.554688 C 468.6875 301.988281 475.902344 287.582031 477.519531 281.839844 C 472.96875 281.667969 462.621094 283.054688 453.96875 286.640625 " fill-opacity="1" fill-rule="nonzero"/></g><path fill="#100f0d" d="M 431.136719 280.292969 C 430.441406 280.386719 429.625 280.539062 428.683594 280.71875 C 426.328125 281.164062 423.304688 281.738281 419.882812 281.738281 C 418.375 281.738281 416.789062 281.625 415.148438 281.34375 C 418.429688 282.660156 421.5625 284.273438 424.269531 286.242188 C 427.320312 288.464844 429.523438 290.933594 431.136719 293.457031 L 431.136719 280.292969 " fill-opacity="1" fill-rule="nonzero"/><g clip-path="url(#id7)"><path fill="#100f0d" d="M 389.0625 302.933594 L 380.613281 308.023438 C 381.164062 310.460938 381.449219 312.957031 381.449219 315.476562 C 381.449219 317.417969 381.28125 319.359375 380.941406 321.269531 L 389.054688 326.15625 L 377.132812 345.953125 L 369.304688 341.234375 C 366.222656 343.78125 362.691406 345.757812 358.929688 347.054688 L 358.929688 356.246094 L 335.828125 356.246094 L 335.828125 346.539062 C 332.351562 345.15625 329.09375 343.179688 326.25 340.722656 L 317.597656 345.925781 L 308.023438 329.992188 C 305.535156 331.523438 302.875 332.765625 300.109375 333.695312 L 300.109375 344.320312 L 274.003906 344.320312 L 274.003906 333.105469 C 269.769531 331.464844 265.8125 329.058594 262.386719 326.050781 L 252.375 332.070312 L 238.921875 309.6875 L 249.78125 303.15625 C 249.460938 301.148438 249.304688 299.113281 249.304688 297.078125 C 249.304688 294.34375 249.585938 291.625 250.15625 288.96875 L 238.9375 282.203125 L 252.40625 259.832031 L 263.957031 266.796875 C 267.011719 264.371094 270.378906 262.449219 274.003906 261.050781 L 274.003906 247.621094 L 300.109375 247.621094 L 300.109375 260.457031 C 304.078125 261.785156 307.765625 263.726562 311.109375 266.257812 L 321.742188 259.863281 L 335.195312 282.25 L 325.695312 287.960938 L 327.601562 289.109375 C 330.117188 287.148438 332.871094 285.578125 335.828125 284.410156 L 335.828125 272.808594 L 358.929688 272.808594 L 358.929688 283.894531 C 362.171875 285.007812 365.199219 286.601562 367.960938 288.664062 L 377.164062 283.125 Z M 445.496094 350.789062 L 445.496094 363.335938 L 233.207031 363.335938 L 233.207031 240.628906 L 380.84375 240.628906 L 380.84375 246.066406 L 238.636719 246.066406 L 238.636719 357.902344 L 440.0625 357.902344 L 440.0625 350.789062 L 419.601562 350.789062 C 417.578125 350.789062 415.894531 349.335938 415.589844 347.339844 L 412.859375 329.472656 C 412.683594 328.300781 413.023438 327.113281 413.796875 326.210938 C 414.566406 325.316406 415.6875 324.800781 416.871094 324.800781 L 431.136719 324.800781 L 431.136719 316.847656 C 430.65625 316.933594 430.136719 317.027344 429.570312 317.136719 C 427.214844 317.582031 424.191406 318.15625 420.769531 318.15625 C 416.003906 318.15625 410.457031 317.046875 404.832031 312.949219 C 393.457031 304.660156 385.667969 287.195312 384.628906 281.957031 C 384.371094 280.660156 384.644531 279.378906 385.394531 278.351562 C 386.140625 277.320312 387.277344 276.667969 388.59375 276.515625 C 391.714844 276.152344 399.609375 276.71875 407.886719 278.945312 C 406.585938 278.285156 405.269531 277.492188 403.945312 276.53125 C 392.570312 268.242188 384.785156 250.78125 383.746094 245.542969 C 383.484375 244.242188 383.757812 242.960938 384.507812 241.929688 C 385.253906 240.902344 386.390625 240.25 387.703125 240.097656 C 393.007812 239.480469 412.003906 241.535156 423.382812 249.824219 C 427.03125 252.484375 429.472656 255.496094 431.136719 258.527344 L 431.136719 240.78125 C 430.398438 240.863281 429.496094 241.039062 428.449219 241.234375 C 426.097656 241.675781 423.078125 242.253906 419.652344 242.253906 C 414.886719 242.253906 409.339844 241.144531 403.714844 237.042969 C 401.609375 235.507812 399.621094 233.660156 397.785156 231.628906 L 242.632812 231.628906 C 235.757812 231.628906 230.160156 236.871094 230.160156 243.308594 L 230.160156 367.699219 L 448.542969 367.699219 L 448.542969 350.628906 C 448.183594 350.730469 447.804688 350.789062 447.414062 350.789062 L 445.496094 350.789062 " fill-opacity="1" fill-rule="nonzero"/></g><path fill="#100f0d" d="M 431.214844 209.800781 L 431.214844 220.398438 L 436.484375 220.398438 L 436.484375 209.800781 L 431.214844 209.800781 " fill-opacity="1" fill-rule="nonzero"/><path fill="#100f0d" d="M 436.5625 280.589844 L 436.5625 293.449219 C 436.5625 293.449219 439.445312 288.742188 443.429688 286.242188 C 447.417969 283.742188 453.128906 280.824219 453.128906 280.824219 C 453.128906 280.824219 446.371094 281.859375 442.917969 281.644531 C 439.460938 281.433594 436.5625 280.589844 436.5625 280.589844 " fill-opacity="1" fill-rule="nonzero"/><g fill="#000000" fill-opacity="1"><g transform="translate(193.582082, 558.34208)"><g><path d="M 14.890625 -16.546875 L 26.59375 -16.546875 L 26.59375 -1.265625 C 24.695312 -0.648438 22.910156 -0.21875 21.234375 0.03125 C 19.554688 0.28125 17.847656 0.40625 16.109375 0.40625 C 11.660156 0.40625 8.265625 -0.898438 5.921875 -3.515625 C 3.578125 -6.128906 2.40625 -9.882812 2.40625 -14.78125 C 2.40625 -19.53125 3.765625 -23.234375 6.484375 -25.890625 C 9.203125 -28.554688 12.972656 -29.890625 17.796875 -29.890625 C 20.816406 -29.890625 23.734375 -29.285156 26.546875 -28.078125 L 24.46875 -23.078125 C 22.320312 -24.148438 20.085938 -24.6875 17.765625 -24.6875 C 15.054688 -24.6875 12.890625 -23.78125 11.265625 -21.96875 C 9.640625 -20.15625 8.828125 -17.71875 8.828125 -14.65625 C 8.828125 -11.457031 9.484375 -9.015625 10.796875 -7.328125 C 12.109375 -5.640625 14.015625 -4.796875 16.515625 -4.796875 C 17.816406 -4.796875 19.140625 -4.929688 20.484375 -5.203125 L 20.484375 -11.34375 L 14.890625 -11.34375 Z M 14.890625 -16.546875 "/></g></g></g><g fill="#000000" fill-opacity="1"><g transform="translate(223.465913, 558.34208)"><g><path d="M 15.796875 -22.953125 C 16.628906 -22.953125 17.320312 -22.894531 17.875 -22.78125 L 17.421875 -17.015625 C 16.921875 -17.148438 16.3125 -17.21875 15.59375 -17.21875 C 13.632812 -17.21875 12.109375 -16.710938 11.015625 -15.703125 C 9.921875 -14.691406 9.375 -13.28125 9.375 -11.46875 L 9.375 0 L 3.21875 0 L 3.21875 -22.53125 L 7.875 -22.53125 L 8.78125 -18.75 L 9.09375 -18.75 C 9.789062 -20.007812 10.734375 -21.023438 11.921875 -21.796875 C 13.109375 -22.566406 14.398438 -22.953125 15.796875 -22.953125 Z M 15.796875 -22.953125 "/></g></g></g><g fill="#000000" fill-opacity="1"><g transform="translate(242.20627, 558.34208)"><g><path d="M 8.125 -11.3125 C 8.125 -9.082031 8.488281 -7.394531 9.21875 -6.25 C 9.957031 -5.101562 11.148438 -4.53125 12.796875 -4.53125 C 14.441406 -4.53125 15.625 -5.097656 16.34375 -6.234375 C 17.0625 -7.367188 17.421875 -9.0625 17.421875 -11.3125 C 17.421875 -13.539062 17.054688 -15.210938 16.328125 -16.328125 C 15.597656 -17.441406 14.410156 -18 12.765625 -18 C 11.117188 -18 9.929688 -17.441406 9.203125 -16.328125 C 8.484375 -15.222656 8.125 -13.550781 8.125 -11.3125 Z M 23.703125 -11.3125 C 23.703125 -7.644531 22.734375 -4.773438 20.796875 -2.703125 C 18.867188 -0.628906 16.175781 0.40625 12.71875 0.40625 C 10.550781 0.40625 8.640625 -0.0664062 6.984375 -1.015625 C 5.335938 -1.960938 4.070312 -3.320312 3.1875 -5.09375 C 2.300781 -6.875 1.859375 -8.945312 1.859375 -11.3125 C 1.859375 -14.988281 2.816406 -17.847656 4.734375 -19.890625 C 6.660156 -21.929688 9.363281 -22.953125 12.84375 -22.953125 C 15 -22.953125 16.90625 -22.484375 18.5625 -21.546875 C 20.21875 -20.609375 21.488281 -19.257812 22.375 -17.5 C 23.257812 -15.738281 23.703125 -13.675781 23.703125 -11.3125 Z M 23.703125 -11.3125 "/></g></g></g><g fill="#000000" fill-opacity="1"><g transform="translate(267.75764, 558.34208)"><g><path d="M 21.75 0 L 20.015625 -7.875 L 17.671875 -17.84375 L 17.53125 -17.84375 L 13.421875 0 L 6.8125 0 L 0.40625 -22.53125 L 6.53125 -22.53125 L 9.125 -12.5625 C 9.539062 -10.769531 9.96875 -8.300781 10.40625 -5.15625 L 10.515625 -5.15625 C 10.578125 -6.175781 10.816406 -7.796875 11.234375 -10.015625 L 11.546875 -11.734375 L 14.328125 -22.53125 L 21.109375 -22.53125 L 23.75 -11.734375 C 23.800781 -11.429688 23.882812 -10.988281 24 -10.40625 C 24.113281 -9.832031 24.222656 -9.21875 24.328125 -8.5625 C 24.429688 -7.914062 24.523438 -7.28125 24.609375 -6.65625 C 24.703125 -6.03125 24.753906 -5.53125 24.765625 -5.15625 L 24.890625 -5.15625 C 25.015625 -6.125 25.226562 -7.453125 25.53125 -9.140625 C 25.84375 -10.828125 26.066406 -11.96875 26.203125 -12.5625 L 28.90625 -22.53125 L 34.9375 -22.53125 L 28.4375 0 Z M 21.75 0 "/></g></g></g><g fill="#000000" fill-opacity="1"><g transform="translate(303.082219, 558.34208)"><g><path d="M 12.71875 -4.5 C 13.789062 -4.5 15.082031 -4.734375 16.59375 -5.203125 L 16.59375 -0.625 C 15.0625 0.0625 13.175781 0.40625 10.9375 0.40625 C 8.476562 0.40625 6.6875 -0.210938 5.5625 -1.453125 C 4.445312 -2.703125 3.890625 -4.570312 3.890625 -7.0625 L 3.890625 -17.921875 L 0.953125 -17.921875 L 0.953125 -20.515625 L 4.328125 -22.578125 L 6.109375 -27.328125 L 10.03125 -27.328125 L 10.03125 -22.53125 L 16.34375 -22.53125 L 16.34375 -17.921875 L 10.03125 -17.921875 L 10.03125 -7.0625 C 10.03125 -6.1875 10.273438 -5.539062 10.765625 -5.125 C 11.265625 -4.707031 11.914062 -4.5 12.71875 -4.5 Z M 12.71875 -4.5 "/></g></g></g><g fill="#000000" fill-opacity="1"><g transform="translate(320.996402, 558.34208)"><g><path d="M 24.03125 0 L 17.875 0 L 17.875 -13.15625 C 17.875 -16.414062 16.664062 -18.046875 14.25 -18.046875 C 12.53125 -18.046875 11.285156 -17.457031 10.515625 -16.28125 C 9.753906 -15.113281 9.375 -13.222656 9.375 -10.609375 L 9.375 0 L 3.21875 0 L 3.21875 -31.359375 L 9.375 -31.359375 L 9.375 -24.96875 C 9.375 -24.476562 9.328125 -23.3125 9.234375 -21.46875 L 9.09375 -19.65625 L 9.40625 -19.65625 C 10.78125 -21.851562 12.957031 -22.953125 15.9375 -22.953125 C 18.59375 -22.953125 20.601562 -22.238281 21.96875 -20.8125 C 23.34375 -19.394531 24.03125 -17.351562 24.03125 -14.6875 Z M 24.03125 0 "/></g></g></g><g fill="#000000" fill-opacity="1"><g transform="translate(348.119544, 558.34208)"><g><path d="M 27.859375 0 L 21.625 0 L 21.625 -12.71875 L 9.953125 -12.71875 L 9.953125 0 L 3.703125 0 L 3.703125 -29.46875 L 9.953125 -29.46875 L 9.953125 -17.921875 L 21.625 -17.921875 L 21.625 -29.46875 L 27.859375 -29.46875 Z M 27.859375 0 "/></g></g></g><g fill="#000000" fill-opacity="1"><g transform="translate(379.696052, 558.34208)"><g><path d="M 17.53125 0 L 16.34375 -3.0625 L 16.1875 -3.0625 C 15.15625 -1.757812 14.085938 -0.851562 12.984375 -0.34375 C 11.890625 0.15625 10.460938 0.40625 8.703125 0.40625 C 6.546875 0.40625 4.84375 -0.210938 3.59375 -1.453125 C 2.351562 -2.691406 1.734375 -4.453125 1.734375 -6.734375 C 1.734375 -9.128906 2.566406 -10.894531 4.234375 -12.03125 C 5.910156 -13.164062 8.4375 -13.789062 11.8125 -13.90625 L 15.71875 -14.03125 L 15.71875 -15.015625 C 15.71875 -17.296875 14.550781 -18.4375 12.21875 -18.4375 C 10.414062 -18.4375 8.296875 -17.894531 5.859375 -16.8125 L 3.828125 -20.96875 C 6.421875 -22.320312 9.296875 -23 12.453125 -23 C 15.484375 -23 17.800781 -22.335938 19.40625 -21.015625 C 21.019531 -19.703125 21.828125 -17.703125 21.828125 -15.015625 L 21.828125 0 Z M 15.71875 -10.4375 L 13.34375 -10.359375 C 11.550781 -10.304688 10.21875 -9.984375 9.34375 -9.390625 C 8.476562 -8.796875 8.046875 -7.894531 8.046875 -6.6875 C 8.046875 -4.957031 9.039062 -4.09375 11.03125 -4.09375 C 12.445312 -4.09375 13.582031 -4.5 14.4375 -5.3125 C 15.289062 -6.132812 15.71875 -7.226562 15.71875 -8.59375 Z M 15.71875 -10.4375 "/></g></g></g><g fill="#000000" fill-opacity="1"><g transform="translate(404.622757, 558.34208)"><g><path d="M 12.375 0.40625 C 5.363281 0.40625 1.859375 -3.441406 1.859375 -11.140625 C 1.859375 -14.972656 2.8125 -17.898438 4.71875 -19.921875 C 6.625 -21.941406 9.359375 -22.953125 12.921875 -22.953125 C 15.523438 -22.953125 17.863281 -22.441406 19.9375 -21.421875 L 18.125 -16.671875 C 17.15625 -17.054688 16.253906 -17.375 15.421875 -17.625 C 14.585938 -17.875 13.753906 -18 12.921875 -18 C 9.722656 -18 8.125 -15.726562 8.125 -11.1875 C 8.125 -6.78125 9.722656 -4.578125 12.921875 -4.578125 C 14.097656 -4.578125 15.191406 -4.734375 16.203125 -5.046875 C 17.210938 -5.359375 18.222656 -5.851562 19.234375 -6.53125 L 19.234375 -1.265625 C 18.234375 -0.640625 17.222656 -0.207031 16.203125 0.03125 C 15.191406 0.28125 13.914062 0.40625 12.375 0.40625 Z M 12.375 0.40625 "/></g></g></g><g fill="#000000" fill-opacity="1"><g transform="translate(425.841691, 558.34208)"><g><path d="M 9.125 -12.25 L 11.8125 -15.6875 L 18.125 -22.53125 L 25.0625 -22.53125 L 16.109375 -12.765625 L 25.59375 0 L 18.5 0 L 12.015625 -9.125 L 9.375 -7.015625 L 9.375 0 L 3.21875 0 L 3.21875 -31.359375 L 9.375 -31.359375 L 9.375 -17.375 L 9.046875 -12.25 Z M 9.125 -12.25 "/></g></g></g><g fill="#000000" fill-opacity="1"><g transform="translate(451.433362, 558.34208)"><g><path d="M 2.96875 -28.359375 C 2.96875 -30.359375 4.082031 -31.359375 6.3125 -31.359375 C 8.539062 -31.359375 9.65625 -30.359375 9.65625 -28.359375 C 9.65625 -27.398438 9.375 -26.65625 8.8125 -26.125 C 8.257812 -25.601562 7.425781 -25.34375 6.3125 -25.34375 C 4.082031 -25.34375 2.96875 -26.347656 2.96875 -28.359375 Z M 9.375 0 L 3.21875 0 L 3.21875 -22.53125 L 9.375 -22.53125 Z M 9.375 0 "/></g></g></g><g fill="#000000" fill-opacity="1"><g transform="translate(464.027702, 558.34208)"><g><path d="M 24.03125 0 L 17.875 0 L 17.875 -13.15625 C 17.875 -14.78125 17.582031 -16 17 -16.8125 C 16.425781 -17.632812 15.507812 -18.046875 14.25 -18.046875 C 12.53125 -18.046875 11.285156 -17.46875 10.515625 -16.3125 C 9.753906 -15.164062 9.375 -13.265625 9.375 -10.609375 L 9.375 0 L 3.21875 0 L 3.21875 -22.53125 L 7.921875 -22.53125 L 8.75 -19.65625 L 9.09375 -19.65625 C 9.78125 -20.738281 10.722656 -21.554688 11.921875 -22.109375 C 13.128906 -22.671875 14.5 -22.953125 16.03125 -22.953125 C 18.644531 -22.953125 20.628906 -22.242188 21.984375 -20.828125 C 23.347656 -19.410156 24.03125 -17.363281 24.03125 -14.6875 Z M 24.03125 0 "/></g></g></g><g fill="#000000" fill-opacity="1"><g transform="translate(491.150843, 558.34208)"><g><path d="M 22.84375 -22.53125 L 22.84375 -19.40625 L 19.3125 -18.5 C 19.957031 -17.5 20.28125 -16.375 20.28125 -15.125 C 20.28125 -12.695312 19.4375 -10.804688 17.75 -9.453125 C 16.0625 -8.109375 13.71875 -7.4375 10.71875 -7.4375 L 9.609375 -7.5 L 8.703125 -7.59375 C 8.078125 -7.113281 7.765625 -6.578125 7.765625 -5.984375 C 7.765625 -5.097656 8.890625 -4.65625 11.140625 -4.65625 L 14.96875 -4.65625 C 17.445312 -4.65625 19.332031 -4.125 20.625 -3.0625 C 21.925781 -2 22.578125 -0.441406 22.578125 1.609375 C 22.578125 4.242188 21.476562 6.285156 19.28125 7.734375 C 17.082031 9.191406 13.925781 9.921875 9.8125 9.921875 C 6.664062 9.921875 4.265625 9.367188 2.609375 8.265625 C 0.953125 7.171875 0.125 5.640625 0.125 3.671875 C 0.125 2.304688 0.546875 1.164062 1.390625 0.25 C 2.234375 -0.65625 3.476562 -1.300781 5.125 -1.6875 C 4.488281 -1.957031 3.9375 -2.398438 3.46875 -3.015625 C 3 -3.628906 2.765625 -4.273438 2.765625 -4.953125 C 2.765625 -5.816406 3.007812 -6.535156 3.5 -7.109375 C 4 -7.679688 4.722656 -8.238281 5.671875 -8.78125 C 4.484375 -9.289062 3.539062 -10.109375 2.84375 -11.234375 C 2.15625 -12.367188 1.8125 -13.703125 1.8125 -15.234375 C 1.8125 -17.691406 2.609375 -19.59375 4.203125 -20.9375 C 5.804688 -22.28125 8.09375 -22.953125 11.0625 -22.953125 C 11.695312 -22.953125 12.445312 -22.894531 13.3125 -22.78125 C 14.175781 -22.664062 14.726562 -22.582031 14.96875 -22.53125 Z M 5.4375 3.1875 C 5.4375 4.03125 5.84375 4.691406 6.65625 5.171875 C 7.46875 5.660156 8.609375 5.90625 10.078125 5.90625 C 12.285156 5.90625 14.015625 5.601562 15.265625 5 C 16.515625 4.394531 17.140625 3.566406 17.140625 2.515625 C 17.140625 1.671875 16.769531 1.085938 16.03125 0.765625 C 15.289062 0.441406 14.144531 0.28125 12.59375 0.28125 L 9.40625 0.28125 C 8.28125 0.28125 7.335938 0.546875 6.578125 1.078125 C 5.816406 1.609375 5.4375 2.3125 5.4375 3.1875 Z M 7.6875 -15.15625 C 7.6875 -13.9375 7.960938 -12.96875 8.515625 -12.25 C 9.078125 -11.539062 9.925781 -11.1875 11.0625 -11.1875 C 12.21875 -11.1875 13.0625 -11.539062 13.59375 -12.25 C 14.132812 -12.96875 14.40625 -13.9375 14.40625 -15.15625 C 14.40625 -17.875 13.289062 -19.234375 11.0625 -19.234375 C 8.8125 -19.234375 7.6875 -17.875 7.6875 -15.15625 Z M 7.6875 -15.15625 "/></g></g></g></svg>