<svg xmlns="http://www.w3.org/2000/svg" xmlns:xlink="http://www.w3.org/1999/xlink" width="940" zoomAndPan="magnify" viewBox="0 0 705 591.000005" height="788" preserveAspectRatio="xMidYMid meet" version="1.0"><defs><g/><clipPath id="id1"><path d="M 62.640625 0 L 645.152344 0 L 645.152344 590 L 62.640625 590 Z M 62.640625 0 " clip-rule="nonzero"/></clipPath><clipPath id="id2"><path d="M 152.914062 91.066406 L 554.984375 91.066406 L 554.984375 493.136719 L 152.914062 493.136719 Z M 152.914062 91.066406 " clip-rule="nonzero"/></clipPath><clipPath id="id3"><path d="M 234.5 206 L 470.351562 206 L 470.351562 383 L 234.5 383 Z M 234.5 206 " clip-rule="nonzero"/></clipPath><clipPath id="id4"><path d="M 234.5 353 L 470.351562 353 L 470.351562 364 L 234.5 364 Z M 234.5 353 " clip-rule="nonzero"/></clipPath><clipPath id="id5"><path d="M 303 402 L 402 402 L 402 412.851562 L 303 412.851562 Z M 303 402 " clip-rule="nonzero"/></clipPath><clipPath id="id6"><path d="M 313 372 L 333 372 L 333 412.851562 L 313 412.851562 Z M 313 372 " clip-rule="nonzero"/></clipPath><clipPath id="id7"><path d="M 372 372 L 392 372 L 392 412.851562 L 372 412.851562 Z M 372 372 " clip-rule="nonzero"/></clipPath></defs><g clip-path="url(#id1)"><path fill="#385682" d="M 62.640625 0 L 645.152344 0 L 645.152344 643.160156 L 62.640625 643.160156 L 62.640625 0 " fill-opacity="1" fill-rule="nonzero"/></g><g clip-path="url(#id2)"><path fill="#666565" d="M 353.949219 91.066406 C 242.921875 91.066406 152.914062 181.074219 152.914062 292.101562 C 152.914062 403.128906 242.921875 493.136719 353.949219 493.136719 C 464.976562 493.136719 554.984375 403.128906 554.984375 292.101562 C 554.984375 181.074219 464.976562 91.066406 353.949219 91.066406 " fill-opacity="1" fill-rule="nonzero"/></g><g clip-path="url(#id3)"><path fill="#000000" d="M 460.222656 373 L 244.625 373 L 244.625 216.199219 L 370.367188 216.199219 C 373.070312 216.199219 375.265625 214.003906 375.265625 211.300781 C 375.265625 208.59375 373.070312 206.398438 370.367188 206.398438 L 239.726562 206.398438 C 237.019531 206.398438 234.828125 208.59375 234.828125 211.300781 L 234.828125 377.898438 C 234.828125 380.605469 237.019531 382.796875 239.726562 382.796875 L 465.125 382.796875 C 467.828125 382.796875 470.023438 380.605469 470.023438 377.898438 L 470.023438 211.300781 C 470.023438 208.59375 467.828125 206.398438 465.125 206.398438 C 462.417969 206.398438 460.222656 208.59375 460.222656 211.300781 Z M 460.222656 373 " fill-opacity="1" fill-rule="nonzero"/></g><g clip-path="url(#id4)"><path fill="#000000" d="M 239.726562 363.199219 L 465.125 363.199219 C 467.828125 363.199219 470.023438 361.003906 470.023438 358.296875 C 470.023438 355.59375 467.828125 353.398438 465.125 353.398438 L 239.726562 353.398438 C 237.019531 353.398438 234.828125 355.59375 234.828125 358.296875 C 234.828125 361.003906 237.019531 363.199219 239.726562 363.199219 Z M 239.726562 363.199219 " fill-opacity="1" fill-rule="nonzero"/></g><g clip-path="url(#id5)"><path fill="#000000" d="M 308.324219 412.199219 L 396.523438 412.199219 C 399.230469 412.199219 401.425781 410.003906 401.425781 407.296875 C 401.425781 404.59375 399.230469 402.398438 396.523438 402.398438 L 308.324219 402.398438 C 305.621094 402.398438 303.425781 404.59375 303.425781 407.296875 C 303.425781 410.003906 305.621094 412.199219 308.324219 412.199219 Z M 308.324219 412.199219 " fill-opacity="1" fill-rule="nonzero"/></g><g clip-path="url(#id6)"><path fill="#000000" d="M 322.769531 408.855469 L 332.570312 379.457031 C 333.4375 376.878906 332.035156 374.097656 329.480469 373.253906 C 326.90625 372.386719 324.121094 373.789062 323.28125 376.339844 L 313.480469 405.742188 C 312.613281 408.320312 314.015625 411.101562 316.570312 411.941406 C 319.144531 412.8125 321.929688 411.40625 322.769531 408.855469 Z M 322.769531 408.855469 " fill-opacity="1" fill-rule="nonzero"/></g><g clip-path="url(#id7)"><path fill="#000000" d="M 382.078125 408.855469 L 372.28125 379.457031 C 371.414062 376.878906 372.816406 374.097656 375.367188 373.253906 C 377.945312 372.386719 380.726562 373.789062 381.570312 376.339844 L 391.371094 405.742188 C 392.238281 408.320312 390.832031 411.101562 388.28125 411.941406 C 385.703125 412.8125 382.921875 411.40625 382.078125 408.855469 Z M 382.078125 408.855469 " fill-opacity="1" fill-rule="nonzero"/></g><path fill="#000000" d="M 444.351562 220.972656 L 344.078125 309.019531 C 343.136719 309.835938 338.667969 303.53125 333.691406 298.632812 C 328.28125 293.296875 322.414062 289.265625 323.304688 288.246094 L 411.351562 187.972656 C 420.4375 177.742188 435.722656 177.28125 445.371094 186.953125 C 455.070312 196.625 454.582031 211.886719 444.351562 220.972656 Z M 438.453125 193.871094 C 432.765625 188.203125 424.035156 188.460938 418.703125 194.457031 L 333.691406 291.257812 L 341.070312 298.632812 L 437.84375 213.648438 C 443.867188 208.289062 444.144531 199.5625 438.453125 193.871094 Z M 438.453125 193.871094 " fill-opacity="1" fill-rule="nonzero"/><path fill="#000000" d="M 281.25 332.855469 C 278.3125 330.480469 279.054688 325.8125 282.574219 324.457031 C 288.878906 322.058594 292.171875 317.59375 296.613281 307.335938 C 300.59375 298.148438 301.691406 296.003906 304.804688 292.863281 C 314.375 283.292969 329.890625 283.292969 339.460938 292.863281 C 349.03125 302.433594 349.03125 317.949219 339.460938 327.519531 C 326.574219 340.382812 298.039062 346.328125 281.25 332.855469 Z M 332.519531 320.578125 C 338.261719 314.835938 338.261719 305.546875 332.519531 299.804688 C 326.777344 294.0625 317.488281 294.0625 311.746094 299.804688 C 309.90625 301.644531 308.9375 303.507812 305.621094 311.214844 C 302.023438 319.53125 298.78125 325.070312 294.210938 328.925781 C 306.921875 333.390625 324.429688 328.695312 332.519531 320.578125 Z M 332.519531 320.578125 " fill-opacity="1" fill-rule="nonzero"/><path fill="#000000" d="M 343.695312 274.464844 L 357.835938 288.527344 C 359.75 290.441406 362.835938 290.441406 364.75 288.527344 C 366.664062 286.613281 366.664062 283.496094 364.75 281.582031 L 350.613281 267.523438 C 348.699219 265.609375 345.585938 265.632812 343.671875 267.546875 C 341.757812 269.460938 341.78125 272.550781 343.695312 274.464844 Z M 343.695312 274.464844 " fill-opacity="1" fill-rule="nonzero"/><g fill="#000000" fill-opacity="1"><g transform="translate(232.93053, 558.645107)"><g><path d="M 32.40625 0 L 25.296875 0 L 21.3125 -15.484375 C 21.15625 -16.035156 20.898438 -17.171875 20.546875 -18.890625 C 20.191406 -20.617188 19.988281 -21.78125 19.9375 -22.375 C 19.851562 -21.644531 19.648438 -20.476562 19.328125 -18.875 C 19.003906 -17.269531 18.753906 -16.125 18.578125 -15.4375 L 14.609375 0 L 7.515625 0 L 0 -29.46875 L 6.140625 -29.46875 L 9.921875 -13.390625 C 10.578125 -10.410156 11.050781 -7.835938 11.34375 -5.671875 C 11.425781 -6.429688 11.613281 -7.613281 11.90625 -9.21875 C 12.195312 -10.820312 12.46875 -12.066406 12.71875 -12.953125 L 17.015625 -29.46875 L 22.921875 -29.46875 L 27.21875 -12.953125 C 27.40625 -12.222656 27.640625 -11.097656 27.921875 -9.578125 C 28.203125 -8.054688 28.414062 -6.753906 28.5625 -5.671875 C 28.695312 -6.710938 28.910156 -8.015625 29.203125 -9.578125 C 29.503906 -11.148438 29.773438 -12.421875 30.015625 -13.390625 L 33.765625 -29.46875 L 39.90625 -29.46875 Z M 32.40625 0 "/></g></g></g><g fill="#000000" fill-opacity="1"><g transform="translate(272.834018, 558.645107)"><g><path d="M 12.5625 -18.578125 C 11.257812 -18.578125 10.238281 -18.164062 9.5 -17.34375 C 8.757812 -16.519531 8.332031 -15.347656 8.21875 -13.828125 L 16.84375 -13.828125 C 16.820312 -15.347656 16.425781 -16.519531 15.65625 -17.34375 C 14.894531 -18.164062 13.863281 -18.578125 12.5625 -18.578125 Z M 13.421875 0.40625 C 9.796875 0.40625 6.960938 -0.59375 4.921875 -2.59375 C 2.878906 -4.601562 1.859375 -7.441406 1.859375 -11.109375 C 1.859375 -14.878906 2.800781 -17.796875 4.6875 -19.859375 C 6.570312 -21.921875 9.179688 -22.953125 12.515625 -22.953125 C 15.703125 -22.953125 18.179688 -22.046875 19.953125 -20.234375 C 21.722656 -18.421875 22.609375 -15.914062 22.609375 -12.71875 L 22.609375 -9.734375 L 8.078125 -9.734375 C 8.148438 -7.984375 8.671875 -6.617188 9.640625 -5.640625 C 10.609375 -4.660156 11.960938 -4.171875 13.703125 -4.171875 C 15.066406 -4.171875 16.351562 -4.3125 17.5625 -4.59375 C 18.769531 -4.875 20.03125 -5.328125 21.34375 -5.953125 L 21.34375 -1.1875 C 20.269531 -0.65625 19.117188 -0.257812 17.890625 0 C 16.671875 0.269531 15.179688 0.40625 13.421875 0.40625 Z M 13.421875 0.40625 "/></g></g></g><g fill="#000000" fill-opacity="1"><g transform="translate(297.219483, 558.645107)"><g><path d="M 15.765625 -22.953125 C 18.421875 -22.953125 20.5 -21.914062 22 -19.84375 C 23.507812 -17.769531 24.265625 -14.925781 24.265625 -11.3125 C 24.265625 -7.582031 23.488281 -4.695312 21.9375 -2.65625 C 20.382812 -0.613281 18.269531 0.40625 15.59375 0.40625 C 12.945312 0.40625 10.875 -0.554688 9.375 -2.484375 L 8.953125 -2.484375 L 7.921875 0 L 3.21875 0 L 3.21875 -31.359375 L 9.375 -31.359375 L 9.375 -24.0625 C 9.375 -23.132812 9.289062 -21.648438 9.125 -19.609375 L 9.375 -19.609375 C 10.8125 -21.835938 12.941406 -22.953125 15.765625 -22.953125 Z M 13.78125 -18.046875 C 12.269531 -18.046875 11.160156 -17.578125 10.453125 -16.640625 C 9.753906 -15.703125 9.394531 -14.160156 9.375 -12.015625 L 9.375 -11.34375 C 9.375 -8.925781 9.734375 -7.191406 10.453125 -6.140625 C 11.171875 -5.097656 12.3125 -4.578125 13.875 -4.578125 C 15.132812 -4.578125 16.132812 -5.15625 16.875 -6.3125 C 17.625 -7.476562 18 -9.171875 18 -11.390625 C 18 -13.609375 17.625 -15.269531 16.875 -16.375 C 16.125 -17.488281 15.09375 -18.046875 13.78125 -18.046875 Z M 13.78125 -18.046875 "/></g></g></g><g fill="#000000" fill-opacity="1"><g transform="translate(323.33813, 558.645107)"><g><path d="M 1.234375 -8.546875 L 1.234375 -13.578125 L 12.046875 -13.578125 L 12.046875 -8.546875 Z M 1.234375 -8.546875 "/></g></g></g><g fill="#000000" fill-opacity="1"><g transform="translate(336.61914, 558.645107)"><g><path d="M 28.15625 -15.015625 C 28.15625 -10.160156 26.773438 -6.441406 24.015625 -3.859375 C 21.253906 -1.285156 17.265625 0 12.046875 0 L 3.703125 0 L 3.703125 -29.46875 L 12.953125 -29.46875 C 17.765625 -29.46875 21.5 -28.195312 24.15625 -25.65625 C 26.820312 -23.113281 28.15625 -19.566406 28.15625 -15.015625 Z M 21.671875 -14.859375 C 21.671875 -21.179688 18.875 -24.34375 13.28125 -24.34375 L 9.953125 -24.34375 L 9.953125 -5.15625 L 12.640625 -5.15625 C 18.660156 -5.15625 21.671875 -8.390625 21.671875 -14.859375 Z M 21.671875 -14.859375 "/></g></g></g><g fill="#000000" fill-opacity="1"><g transform="translate(367.171508, 558.645107)"><g><path d="M 12.5625 -18.578125 C 11.257812 -18.578125 10.238281 -18.164062 9.5 -17.34375 C 8.757812 -16.519531 8.332031 -15.347656 8.21875 -13.828125 L 16.84375 -13.828125 C 16.820312 -15.347656 16.425781 -16.519531 15.65625 -17.34375 C 14.894531 -18.164062 13.863281 -18.578125 12.5625 -18.578125 Z M 13.421875 0.40625 C 9.796875 0.40625 6.960938 -0.59375 4.921875 -2.59375 C 2.878906 -4.601562 1.859375 -7.441406 1.859375 -11.109375 C 1.859375 -14.878906 2.800781 -17.796875 4.6875 -19.859375 C 6.570312 -21.921875 9.179688 -22.953125 12.515625 -22.953125 C 15.703125 -22.953125 18.179688 -22.046875 19.953125 -20.234375 C 21.722656 -18.421875 22.609375 -15.914062 22.609375 -12.71875 L 22.609375 -9.734375 L 8.078125 -9.734375 C 8.148438 -7.984375 8.671875 -6.617188 9.640625 -5.640625 C 10.609375 -4.660156 11.960938 -4.171875 13.703125 -4.171875 C 15.066406 -4.171875 16.351562 -4.3125 17.5625 -4.59375 C 18.769531 -4.875 20.03125 -5.328125 21.34375 -5.953125 L 21.34375 -1.1875 C 20.269531 -0.65625 19.117188 -0.257812 17.890625 0 C 16.671875 0.269531 15.179688 0.40625 13.421875 0.40625 Z M 13.421875 0.40625 "/></g></g></g><g fill="#000000" fill-opacity="1"><g transform="translate(391.556973, 558.645107)"><g><path d="M 18.953125 -6.6875 C 18.953125 -4.375 18.144531 -2.613281 16.53125 -1.40625 C 14.925781 -0.195312 12.523438 0.40625 9.328125 0.40625 C 7.691406 0.40625 6.296875 0.289062 5.140625 0.0625 C 3.984375 -0.15625 2.898438 -0.476562 1.890625 -0.90625 L 1.890625 -5.984375 C 3.035156 -5.453125 4.320312 -5.003906 5.75 -4.640625 C 7.1875 -4.273438 8.445312 -4.09375 9.53125 -4.09375 C 11.757812 -4.09375 12.875 -4.738281 12.875 -6.03125 C 12.875 -6.507812 12.726562 -6.898438 12.4375 -7.203125 C 12.144531 -7.503906 11.632812 -7.847656 10.90625 -8.234375 C 10.175781 -8.617188 9.207031 -9.066406 8 -9.578125 C 6.269531 -10.296875 5 -10.960938 4.1875 -11.578125 C 3.375 -12.203125 2.78125 -12.914062 2.40625 -13.71875 C 2.039062 -14.519531 1.859375 -15.503906 1.859375 -16.671875 C 1.859375 -18.671875 2.632812 -20.21875 4.1875 -21.3125 C 5.738281 -22.40625 7.9375 -22.953125 10.78125 -22.953125 C 13.5 -22.953125 16.140625 -22.363281 18.703125 -21.1875 L 16.84375 -16.75 C 15.71875 -17.226562 14.664062 -17.625 13.6875 -17.9375 C 12.707031 -18.25 11.707031 -18.40625 10.6875 -18.40625 C 8.875 -18.40625 7.96875 -17.914062 7.96875 -16.9375 C 7.96875 -16.382812 8.257812 -15.90625 8.84375 -15.5 C 9.425781 -15.09375 10.703125 -14.492188 12.671875 -13.703125 C 14.429688 -12.992188 15.722656 -12.328125 16.546875 -11.703125 C 17.367188 -11.085938 17.972656 -10.375 18.359375 -9.5625 C 18.753906 -8.757812 18.953125 -7.800781 18.953125 -6.6875 Z M 18.953125 -6.6875 "/></g></g></g><g fill="#000000" fill-opacity="1"><g transform="translate(412.073009, 558.645107)"><g><path d="M 2.96875 -28.359375 C 2.96875 -30.359375 4.082031 -31.359375 6.3125 -31.359375 C 8.539062 -31.359375 9.65625 -30.359375 9.65625 -28.359375 C 9.65625 -27.398438 9.375 -26.65625 8.8125 -26.125 C 8.257812 -25.601562 7.425781 -25.34375 6.3125 -25.34375 C 4.082031 -25.34375 2.96875 -26.347656 2.96875 -28.359375 Z M 9.375 0 L 3.21875 0 L 3.21875 -22.53125 L 9.375 -22.53125 Z M 9.375 0 "/></g></g></g><g fill="#000000" fill-opacity="1"><g transform="translate(424.668807, 558.645107)"><g><path d="M 22.84375 -22.53125 L 22.84375 -19.40625 L 19.3125 -18.5 C 19.957031 -17.5 20.28125 -16.375 20.28125 -15.125 C 20.28125 -12.695312 19.4375 -10.804688 17.75 -9.453125 C 16.0625 -8.109375 13.71875 -7.4375 10.71875 -7.4375 L 9.609375 -7.5 L 8.703125 -7.59375 C 8.078125 -7.113281 7.765625 -6.578125 7.765625 -5.984375 C 7.765625 -5.097656 8.890625 -4.65625 11.140625 -4.65625 L 14.96875 -4.65625 C 17.445312 -4.65625 19.332031 -4.125 20.625 -3.0625 C 21.925781 -2 22.578125 -0.441406 22.578125 1.609375 C 22.578125 4.242188 21.476562 6.285156 19.28125 7.734375 C 17.082031 9.191406 13.925781 9.921875 9.8125 9.921875 C 6.664062 9.921875 4.265625 9.367188 2.609375 8.265625 C 0.953125 7.171875 0.125 5.640625 0.125 3.671875 C 0.125 2.304688 0.546875 1.164062 1.390625 0.25 C 2.234375 -0.65625 3.476562 -1.300781 5.125 -1.6875 C 4.488281 -1.957031 3.9375 -2.398438 3.46875 -3.015625 C 3 -3.628906 2.765625 -4.273438 2.765625 -4.953125 C 2.765625 -5.816406 3.007812 -6.535156 3.5 -7.109375 C 4 -7.679688 4.722656 -8.238281 5.671875 -8.78125 C 4.484375 -9.289062 3.539062 -10.109375 2.84375 -11.234375 C 2.15625 -12.367188 1.8125 -13.703125 1.8125 -15.234375 C 1.8125 -17.691406 2.609375 -19.59375 4.203125 -20.9375 C 5.804688 -22.28125 8.09375 -22.953125 11.0625 -22.953125 C 11.695312 -22.953125 12.445312 -22.894531 13.3125 -22.78125 C 14.175781 -22.664062 14.726562 -22.582031 14.96875 -22.53125 Z M 5.4375 3.1875 C 5.4375 4.03125 5.84375 4.691406 6.65625 5.171875 C 7.46875 5.660156 8.609375 5.90625 10.078125 5.90625 C 12.285156 5.90625 14.015625 5.601562 15.265625 5 C 16.515625 4.394531 17.140625 3.566406 17.140625 2.515625 C 17.140625 1.671875 16.769531 1.085938 16.03125 0.765625 C 15.289062 0.441406 14.144531 0.28125 12.59375 0.28125 L 9.40625 0.28125 C 8.28125 0.28125 7.335938 0.546875 6.578125 1.078125 C 5.816406 1.609375 5.4375 2.3125 5.4375 3.1875 Z M 7.6875 -15.15625 C 7.6875 -13.9375 7.960938 -12.96875 8.515625 -12.25 C 9.078125 -11.539062 9.925781 -11.1875 11.0625 -11.1875 C 12.21875 -11.1875 13.0625 -11.539062 13.59375 -12.25 C 14.132812 -12.96875 14.40625 -13.9375 14.40625 -15.15625 C 14.40625 -17.875 13.289062 -19.234375 11.0625 -19.234375 C 8.8125 -19.234375 7.6875 -17.875 7.6875 -15.15625 Z M 7.6875 -15.15625 "/></g></g></g><g fill="#000000" fill-opacity="1"><g transform="translate(447.986149, 558.645107)"><g><path d="M 24.03125 0 L 17.875 0 L 17.875 -13.15625 C 17.875 -14.78125 17.582031 -16 17 -16.8125 C 16.425781 -17.632812 15.507812 -18.046875 14.25 -18.046875 C 12.53125 -18.046875 11.285156 -17.46875 10.515625 -16.3125 C 9.753906 -15.164062 9.375 -13.265625 9.375 -10.609375 L 9.375 0 L 3.21875 0 L 3.21875 -22.53125 L 7.921875 -22.53125 L 8.75 -19.65625 L 9.09375 -19.65625 C 9.78125 -20.738281 10.722656 -21.554688 11.921875 -22.109375 C 13.128906 -22.671875 14.5 -22.953125 16.03125 -22.953125 C 18.644531 -22.953125 20.628906 -22.242188 21.984375 -20.828125 C 23.347656 -19.410156 24.03125 -17.363281 24.03125 -14.6875 Z M 24.03125 0 "/></g></g></g></svg>